<mxfile host="Electron" modified="2024-02-24T10:51:11.421Z" agent="Mozilla/5.0 (X11; Linux x86_64) AppleWebKit/537.36 (KHTML, like Gecko) draw.io/23.1.5 Chrome/120.0.6099.109 Electron/28.1.0 Safari/537.36" etag="evYrH26pc3wwf7wnisJc" version="23.1.5" type="device">
  <diagram id="EX9U6J9YtXhR0Z1IHUno" name="Pagina-1">
    <mxGraphModel dx="677" dy="1923" grid="1" gridSize="10" guides="0" tooltips="1" connect="1" arrows="1" fold="1" page="1" pageScale="1" pageWidth="827" pageHeight="1169" math="0" shadow="0">
      <root>
        <mxCell id="0" />
        <mxCell id="1" parent="0" />
        <mxCell id="iFBfvALlvyKdv1rGwnyk-2" value="R" style="rounded=1;whiteSpace=wrap;html=1;fontSize=20;fillColor=#404040;fontFamily=Tahoma;fontColor=#FFFFFF;rotation=355;strokeColor=#FFFFFF;verticalAlign=middle;" parent="1" vertex="1">
          <mxGeometry x="196" y="110" width="40" height="40" as="geometry" />
        </mxCell>
        <mxCell id="iFBfvALlvyKdv1rGwnyk-3" value="Base" style="rounded=0;whiteSpace=wrap;html=1;fontSize=20;fillColor=#404040;glass=0;sketch=0;fontColor=#FFFFFF;fontFamily=Lucida Console;" parent="1" vertex="1">
          <mxGeometry x="250" y="-10" width="297" height="30" as="geometry" />
        </mxCell>
        <mxCell id="iFBfvALlvyKdv1rGwnyk-4" value="V" style="rounded=1;whiteSpace=wrap;html=1;fontSize=20;fillColor=#404040;fontFamily=Tahoma;fontColor=#FAFAFA;" parent="1" vertex="1">
          <mxGeometry x="320" y="160" width="40" height="40" as="geometry" />
        </mxCell>
        <mxCell id="iFBfvALlvyKdv1rGwnyk-7" value="B" style="rounded=1;whiteSpace=wrap;html=1;fontSize=20;fillColor=#404040;fontFamily=Tahoma;fontColor=#FAFAFA;" parent="1" vertex="1">
          <mxGeometry x="320" y="80" width="40" height="40" as="geometry" />
        </mxCell>
        <mxCell id="iFBfvALlvyKdv1rGwnyk-8" value="T" style="rounded=1;whiteSpace=wrap;html=1;fontSize=20;fillColor=#404040;fontFamily=Tahoma;fontColor=#ffffff;strokeColor=#FFFFFF;verticalAlign=middle;" parent="1" vertex="1">
          <mxGeometry x="280" y="110" width="40" height="40" as="geometry" />
        </mxCell>
        <mxCell id="iFBfvALlvyKdv1rGwnyk-9" value="G" style="rounded=1;whiteSpace=wrap;html=1;fontSize=20;fillColor=#404040;fontFamily=Tahoma;fontColor=#FAFAFA;" parent="1" vertex="1">
          <mxGeometry x="320" y="120" width="40" height="40" as="geometry" />
        </mxCell>
        <mxCell id="iFBfvALlvyKdv1rGwnyk-10" value="W" style="rounded=1;whiteSpace=wrap;html=1;fontSize=20;fillColor=#404040;fontFamily=Tahoma;fontColor=#FAFAFA;rotation=-5;" parent="1" vertex="1">
          <mxGeometry x="193" y="70" width="40" height="40" as="geometry" />
        </mxCell>
        <mxCell id="iFBfvALlvyKdv1rGwnyk-11" value="S" style="rounded=1;whiteSpace=wrap;html=1;fontSize=20;fillColor=#404040;fontFamily=Tahoma;fontColor=#FFFFFF;strokeColor=#FFFFFF;verticalAlign=middle;" parent="1" vertex="1">
          <mxGeometry x="240" y="100" width="40" height="40" as="geometry" />
        </mxCell>
        <mxCell id="iFBfvALlvyKdv1rGwnyk-12" value="D&lt;br style=&quot;font-size: 18px;&quot;&gt;Gui" style="rounded=1;whiteSpace=wrap;html=1;fontSize=18;fillColor=#404040;fontFamily=Tahoma;fontColor=#FAFAFA;verticalAlign=middle;" parent="1" vertex="1">
          <mxGeometry x="280" y="150" width="40" height="40" as="geometry" />
        </mxCell>
        <mxCell id="iFBfvALlvyKdv1rGwnyk-13" value="C&lt;br&gt;Alt" style="rounded=1;whiteSpace=wrap;html=1;fontSize=20;fillColor=#404040;fontFamily=Tahoma;fontColor=#FAFAFA;verticalAlign=middle;" parent="1" vertex="1">
          <mxGeometry x="240" y="140" width="40" height="40" as="geometry" />
        </mxCell>
        <mxCell id="iFBfvALlvyKdv1rGwnyk-14" value="X&lt;br style=&quot;font-size: 18px;&quot;&gt;Ctrl" style="rounded=1;whiteSpace=wrap;html=1;fontSize=18;fillColor=#404040;fontFamily=Tahoma;fontColor=#FAFAFA;rotation=355;verticalAlign=middle;" parent="1" vertex="1">
          <mxGeometry x="199" y="150" width="40" height="40" as="geometry" />
        </mxCell>
        <mxCell id="iFBfvALlvyKdv1rGwnyk-15" value="Z&lt;br style=&quot;font-size: 18px;&quot;&gt;Shift" style="rounded=1;whiteSpace=wrap;html=1;fontSize=18;fillColor=#404040;fontFamily=Tahoma;fontColor=#FAFAFA;rotation=345;verticalAlign=middle;" parent="1" vertex="1">
          <mxGeometry x="160" y="180" width="40" height="40" as="geometry" />
        </mxCell>
        <mxCell id="iFBfvALlvyKdv1rGwnyk-16" value="Q" style="rounded=1;whiteSpace=wrap;html=1;fontSize=20;fillColor=#404040;fontFamily=Tahoma;fontColor=#FAFAFA;rotation=345;" parent="1" vertex="1">
          <mxGeometry x="140" y="102" width="40" height="40" as="geometry" />
        </mxCell>
        <mxCell id="iFBfvALlvyKdv1rGwnyk-17" value="A" style="rounded=1;whiteSpace=wrap;html=1;fontSize=20;fillColor=#404040;fontFamily=Tahoma;rotation=345;strokeColor=#FFFFFF;fontColor=#FFFFFF;" parent="1" vertex="1">
          <mxGeometry x="150" y="141" width="40" height="40" as="geometry" />
        </mxCell>
        <mxCell id="iFBfvALlvyKdv1rGwnyk-398" value="" style="edgeStyle=orthogonalEdgeStyle;orthogonalLoop=1;jettySize=auto;html=1;fontFamily=Tahoma;fontSize=16;fontColor=#FAFAFA;entryX=0;entryY=0.5;entryDx=0;entryDy=0;fillColor=#60a917;strokeColor=#2D7600;rounded=1;" parent="1" target="iFBfvALlvyKdv1rGwnyk-135" edge="1">
          <mxGeometry relative="1" as="geometry">
            <Array as="points">
              <mxPoint x="80" y="230" />
              <mxPoint x="80" y="725" />
            </Array>
            <mxPoint x="299.2944763917983" y="230" as="sourcePoint" />
          </mxGeometry>
        </mxCell>
        <mxCell id="iFBfvALlvyKdv1rGwnyk-401" style="edgeStyle=orthogonalEdgeStyle;rounded=1;orthogonalLoop=1;jettySize=auto;html=1;fontFamily=Tahoma;fontSize=16;fontColor=#FAFAFA;fillColor=#d80073;strokeColor=#A50040;" parent="1" target="iFBfvALlvyKdv1rGwnyk-400" edge="1">
          <mxGeometry relative="1" as="geometry">
            <Array as="points">
              <mxPoint x="320" y="300" />
              <mxPoint x="590" y="300" />
              <mxPoint x="590" y="260" />
            </Array>
            <mxPoint x="320.00845215851314" y="250.70778835724968" as="sourcePoint" />
          </mxGeometry>
        </mxCell>
        <mxCell id="iFBfvALlvyKdv1rGwnyk-19" value="I" style="rounded=1;whiteSpace=wrap;html=1;fontSize=20;fillColor=#404040;fontFamily=Tahoma;rotation=5;flipV=0;flipH=0;direction=east;strokeColor=#FFFFFF;verticalAlign=middle;fontColor=#FFFFFF;" parent="1" vertex="1">
          <mxGeometry x="565" y="110" width="40" height="40" as="geometry" />
        </mxCell>
        <mxCell id="iFBfvALlvyKdv1rGwnyk-20" value="K" style="rounded=1;whiteSpace=wrap;html=1;fontSize=20;fillColor=#404040;fontFamily=Tahoma;fontColor=#FAFAFA;flipV=0;flipH=0;direction=east;" parent="1" vertex="1">
          <mxGeometry x="440" y="160" width="40" height="40" as="geometry" />
        </mxCell>
        <mxCell id="iFBfvALlvyKdv1rGwnyk-23" value="J" style="rounded=1;whiteSpace=wrap;html=1;fontSize=20;fillColor=#404040;fontFamily=Tahoma;fontColor=#FAFAFA;flipV=0;flipH=0;direction=east;" parent="1" vertex="1">
          <mxGeometry x="440" y="80" width="40" height="40" as="geometry" />
        </mxCell>
        <mxCell id="iFBfvALlvyKdv1rGwnyk-24" value="N" style="rounded=1;whiteSpace=wrap;html=1;fontSize=20;fillColor=#404040;fontFamily=Tahoma;fontColor=#ffffff;flipV=0;flipH=0;direction=east;strokeColor=#FFFFFF;verticalAlign=middle;" parent="1" vertex="1">
          <mxGeometry x="480" y="110" width="40" height="40" as="geometry" />
        </mxCell>
        <mxCell id="iFBfvALlvyKdv1rGwnyk-25" value="M" style="rounded=1;whiteSpace=wrap;html=1;fontSize=20;fillColor=#404040;fontFamily=Tahoma;fontColor=#FAFAFA;flipV=0;flipH=0;direction=east;strokeColor=#FFFFFF;" parent="1" vertex="1">
          <mxGeometry x="440" y="120" width="40" height="40" as="geometry" />
        </mxCell>
        <mxCell id="iFBfvALlvyKdv1rGwnyk-27" value="E" style="rounded=1;whiteSpace=wrap;html=1;fontSize=20;fillColor=#404040;fontFamily=Tahoma;flipV=0;flipH=0;direction=east;strokeColor=#FFFFFF;verticalAlign=middle;fontColor=#FFFFFF;" parent="1" vertex="1">
          <mxGeometry x="520" y="100" width="40" height="40" as="geometry" />
        </mxCell>
        <mxCell id="iFBfvALlvyKdv1rGwnyk-28" value="H&lt;br style=&quot;font-size: 18px;&quot;&gt;Gui" style="rounded=1;whiteSpace=wrap;html=1;fontSize=18;fillColor=#404040;fontFamily=Tahoma;fontColor=#FAFAFA;flipV=0;flipH=0;direction=east;verticalAlign=middle;" parent="1" vertex="1">
          <mxGeometry x="480" y="150" width="40" height="40" as="geometry" />
        </mxCell>
        <mxCell id="iFBfvALlvyKdv1rGwnyk-29" value=",&lt;br style=&quot;font-size: 18px;&quot;&gt;Alt" style="rounded=1;whiteSpace=wrap;html=1;fontSize=18;fillColor=#404040;fontFamily=Tahoma;fontColor=#FAFAFA;flipV=0;flipH=0;direction=east;verticalAlign=middle;" parent="1" vertex="1">
          <mxGeometry x="520" y="140" width="40" height="40" as="geometry" />
        </mxCell>
        <mxCell id="iFBfvALlvyKdv1rGwnyk-30" value=".&lt;br style=&quot;font-size: 18px;&quot;&gt;Ctrl" style="rounded=1;whiteSpace=wrap;html=1;fontSize=18;fillColor=#404040;fontFamily=Tahoma;fontColor=#FAFAFA;rotation=5;flipV=0;flipH=0;direction=east;verticalAlign=middle;" parent="1" vertex="1">
          <mxGeometry x="561" y="150" width="40" height="40" as="geometry" />
        </mxCell>
        <mxCell id="iFBfvALlvyKdv1rGwnyk-31" value="&#39;&lt;br style=&quot;font-size: 18px;&quot;&gt;Shift" style="rounded=1;whiteSpace=wrap;html=1;fontSize=18;fillColor=#404040;fontFamily=Tahoma;fontColor=#FAFAFA;rotation=15;flipV=0;flipH=0;direction=east;labelPosition=center;verticalLabelPosition=middle;align=center;verticalAlign=middle;" parent="1" vertex="1">
          <mxGeometry x="600" y="170" width="40" height="40" as="geometry" />
        </mxCell>
        <mxCell id="iFBfvALlvyKdv1rGwnyk-32" value="&lt;span style=&quot;font-family: &amp;quot;segoe ui emoji&amp;quot;, &amp;quot;apple color emoji&amp;quot;, &amp;quot;noto color emoji&amp;quot;; font-size: 15px;&quot;&gt;⌫&lt;br style=&quot;font-size: 15px;&quot;&gt;&lt;/span&gt;&lt;span style=&quot;font-family: &amp;quot;segoe ui emoji&amp;quot;, &amp;quot;apple color emoji&amp;quot;, &amp;quot;noto color emoji&amp;quot;; font-size: 15px;&quot;&gt;⌦&lt;/span&gt;&lt;span style=&quot;font-family: &amp;quot;segoe ui emoji&amp;quot;, &amp;quot;apple color emoji&amp;quot;, &amp;quot;noto color emoji&amp;quot;; font-size: 15px;&quot;&gt;&lt;br style=&quot;font-size: 15px;&quot;&gt;&lt;/span&gt;" style="rounded=1;whiteSpace=wrap;html=1;fontSize=15;fillColor=#404040;fontFamily=Tahoma;fontColor=#FAFAFA;rotation=15;flipV=0;flipH=0;direction=east;" parent="1" vertex="1">
          <mxGeometry x="622" y="92" width="40" height="40" as="geometry" />
        </mxCell>
        <mxCell id="iFBfvALlvyKdv1rGwnyk-33" value="O" style="rounded=1;whiteSpace=wrap;html=1;fontSize=20;fillColor=#404040;fontFamily=Tahoma;rotation=15;flipV=0;flipH=0;direction=east;strokeColor=#FFFFFF;fontColor=#FFFFFF;" parent="1" vertex="1">
          <mxGeometry x="611" y="131" width="40" height="40" as="geometry" />
        </mxCell>
        <mxCell id="iFBfvALlvyKdv1rGwnyk-403" style="edgeStyle=orthogonalEdgeStyle;rounded=1;orthogonalLoop=1;jettySize=auto;html=1;entryX=0;entryY=0.5;entryDx=0;entryDy=0;fontFamily=Tahoma;fontSize=16;fontColor=#FAFAFA;fillColor=#d80073;strokeColor=#A50040;" parent="1" source="iFBfvALlvyKdv1rGwnyk-34" target="iFBfvALlvyKdv1rGwnyk-400" edge="1">
          <mxGeometry relative="1" as="geometry" />
        </mxCell>
        <mxCell id="iFBfvALlvyKdv1rGwnyk-407" value="Combo" style="edgeLabel;html=1;align=center;verticalAlign=middle;resizable=0;points=[];fontSize=16;fontFamily=Tahoma;fontColor=#FF0080;fontStyle=1" parent="iFBfvALlvyKdv1rGwnyk-403" vertex="1" connectable="0">
          <mxGeometry x="0.3314" y="1" relative="1" as="geometry">
            <mxPoint x="16" y="1" as="offset" />
          </mxGeometry>
        </mxCell>
        <mxCell id="iFBfvALlvyKdv1rGwnyk-404" style="edgeStyle=orthogonalEdgeStyle;rounded=1;orthogonalLoop=1;jettySize=auto;html=1;fontFamily=Tahoma;fontSize=16;fontColor=#FAFAFA;entryX=1;entryY=0.5;entryDx=0;entryDy=0;fillColor=#0050ef;strokeColor=#001DBC;" parent="1" source="iFBfvALlvyKdv1rGwnyk-34" target="iFBfvALlvyKdv1rGwnyk-36" edge="1">
          <mxGeometry relative="1" as="geometry">
            <mxPoint x="560" y="350" as="targetPoint" />
            <Array as="points">
              <mxPoint x="480" y="320" />
              <mxPoint x="580" y="320" />
              <mxPoint x="580" y="375" />
            </Array>
          </mxGeometry>
        </mxCell>
        <mxCell id="iFBfvALlvyKdv1rGwnyk-34" value="Space" style="rounded=1;whiteSpace=wrap;html=1;fontSize=15;fillColor=#0050ef;fontFamily=Tahoma;fontColor=#ffffff;rotation=345;flipV=0;flipH=0;direction=east;strokeColor=#FFFFFF;" parent="1" vertex="1">
          <mxGeometry x="460" y="210" width="40" height="40" as="geometry" />
        </mxCell>
        <mxCell id="iFBfvALlvyKdv1rGwnyk-35" value="LAlt" style="rounded=1;whiteSpace=wrap;html=1;fontSize=14;fillColor=#404040;fontFamily=Tahoma;fontColor=#FAFAFA;rotation=355;" parent="1" vertex="1">
          <mxGeometry x="193.5" y="480" width="40" height="40" as="geometry" />
        </mxCell>
        <mxCell id="iFBfvALlvyKdv1rGwnyk-36" value="Utility and Navigation" style="rounded=0;whiteSpace=wrap;html=1;fontSize=20;fillColor=#0050ef;glass=0;sketch=0;fontFamily=Lucida Console;strokeColor=#FFFFFF;fontColor=#ffffff;" parent="1" vertex="1">
          <mxGeometry x="247.5" y="360" width="297" height="30" as="geometry" />
        </mxCell>
        <mxCell id="iFBfvALlvyKdv1rGwnyk-37" value="&lt;span style=&quot;color: rgb(250, 250, 250); font-family: Tahoma; font-size: 16px; font-style: normal; font-variant-ligatures: normal; font-variant-caps: normal; font-weight: 400; letter-spacing: normal; orphans: 2; text-align: center; text-indent: 0px; text-transform: none; widows: 2; word-spacing: 0px; -webkit-text-stroke-width: 0px; background-color: rgb(64, 64, 64); text-decoration-thickness: initial; text-decoration-style: initial; text-decoration-color: initial; float: none; display: inline !important;&quot;&gt;Redo&lt;/span&gt;" style="rounded=1;whiteSpace=wrap;html=1;fontSize=16;fillColor=#404040;fontFamily=Tahoma;fontColor=#FAFAFA;" parent="1" vertex="1">
          <mxGeometry x="317.5" y="530" width="40" height="40" as="geometry" />
        </mxCell>
        <mxCell id="iFBfvALlvyKdv1rGwnyk-38" value="Caps&lt;br style=&quot;font-size: 14px;&quot;&gt;Word" style="rounded=1;whiteSpace=wrap;html=1;fontSize=14;fillColor=#404040;fontFamily=Tahoma;fontColor=#FAFAFA;" parent="1" vertex="1">
          <mxGeometry x="237.5" y="430" width="40" height="40" as="geometry" />
        </mxCell>
        <mxCell id="iFBfvALlvyKdv1rGwnyk-39" value="&lt;span style=&quot;color: rgb(250, 250, 250); font-family: Tahoma; font-size: 14px; font-style: normal; font-variant-ligatures: normal; font-variant-caps: normal; font-weight: 400; letter-spacing: normal; orphans: 2; text-align: center; text-indent: 0px; text-transform: none; widows: 2; word-spacing: 0px; -webkit-text-stroke-width: 0px; background-color: rgb(64, 64, 64); text-decoration-thickness: initial; text-decoration-style: initial; text-decoration-color: initial; float: none; display: inline !important;&quot;&gt;Caps Lock&lt;br style=&quot;font-size: 14px;&quot;&gt;&lt;/span&gt;" style="rounded=1;whiteSpace=wrap;html=1;fontSize=14;fillColor=#404040;fontFamily=Tahoma;fontColor=#FAFAFA;" parent="1" vertex="1">
          <mxGeometry x="277.5" y="440" width="40" height="40" as="geometry" />
        </mxCell>
        <mxCell id="iFBfvALlvyKdv1rGwnyk-40" value="&lt;span style=&quot;color: rgb(250, 250, 250); font-family: Tahoma; font-size: 16px; font-style: normal; font-variant-ligatures: normal; font-variant-caps: normal; font-weight: 400; letter-spacing: normal; orphans: 2; text-align: center; text-indent: 0px; text-transform: none; widows: 2; word-spacing: 0px; -webkit-text-stroke-width: 0px; background-color: rgb(64, 64, 64); text-decoration-thickness: initial; text-decoration-style: initial; text-decoration-color: initial; float: none; display: inline !important;&quot;&gt;Ins&lt;/span&gt;" style="rounded=1;whiteSpace=wrap;html=1;fontSize=16;fillColor=#404040;fontFamily=Tahoma;fontColor=#FAFAFA;" parent="1" vertex="1">
          <mxGeometry x="317.5" y="450" width="40" height="40" as="geometry" />
        </mxCell>
        <mxCell id="iFBfvALlvyKdv1rGwnyk-41" value="LShift" style="rounded=1;whiteSpace=wrap;html=1;fontSize=14;fillColor=#404040;fontFamily=Tahoma;fontColor=#FAFAFA;" parent="1" vertex="1">
          <mxGeometry x="277.5" y="480" width="40" height="40" as="geometry" />
        </mxCell>
        <mxCell id="iFBfvALlvyKdv1rGwnyk-42" value="LGui" style="rounded=1;whiteSpace=wrap;html=1;fontSize=18;fillColor=#404040;fontFamily=Tahoma;fontColor=#FAFAFA;" parent="1" vertex="1">
          <mxGeometry x="317.5" y="490" width="40" height="40" as="geometry" />
        </mxCell>
        <mxCell id="iFBfvALlvyKdv1rGwnyk-43" value="Print" style="rounded=1;whiteSpace=wrap;html=1;fontSize=14;fillColor=#404040;fontFamily=Tahoma;fontColor=#FAFAFA;rotation=-5;" parent="1" vertex="1">
          <mxGeometry x="190.5" y="440" width="40" height="40" as="geometry" />
        </mxCell>
        <mxCell id="iFBfvALlvyKdv1rGwnyk-44" value="LCtrl" style="rounded=1;whiteSpace=wrap;html=1;fontSize=14;fillColor=#404040;fontFamily=Tahoma;fontColor=#FAFAFA;" parent="1" vertex="1">
          <mxGeometry x="237.5" y="470" width="40" height="40" as="geometry" />
        </mxCell>
        <mxCell id="iFBfvALlvyKdv1rGwnyk-45" value="&lt;span style=&quot;color: rgb(250, 250, 250); font-family: Tahoma; font-size: 13px; font-style: normal; font-variant-ligatures: normal; font-variant-caps: normal; font-weight: 400; letter-spacing: normal; orphans: 2; text-align: center; text-indent: 0px; text-transform: none; widows: 2; word-spacing: 0px; -webkit-text-stroke-width: 0px; background-color: rgb(64, 64, 64); text-decoration-thickness: initial; text-decoration-style: initial; text-decoration-color: initial; float: none; display: inline !important;&quot;&gt;Ctrl+V&lt;/span&gt;" style="rounded=1;whiteSpace=wrap;html=1;fontSize=13;fillColor=#404040;fontFamily=Tahoma;fontColor=#FAFAFA;" parent="1" vertex="1">
          <mxGeometry x="277.5" y="520" width="40" height="40" as="geometry" />
        </mxCell>
        <mxCell id="iFBfvALlvyKdv1rGwnyk-46" value="&lt;span style=&quot;color: rgb(250, 250, 250); font-family: Tahoma; font-size: 13px; font-style: normal; font-variant-ligatures: normal; font-variant-caps: normal; font-weight: 400; letter-spacing: normal; orphans: 2; text-align: center; text-indent: 0px; text-transform: none; widows: 2; word-spacing: 0px; -webkit-text-stroke-width: 0px; background-color: rgb(64, 64, 64); text-decoration-thickness: initial; text-decoration-style: initial; text-decoration-color: initial; float: none; display: inline !important;&quot;&gt;Ctrl+C&lt;br style=&quot;font-size: 13px;&quot;&gt;&lt;/span&gt;" style="rounded=1;whiteSpace=wrap;html=1;fontSize=13;fillColor=#404040;fontFamily=Tahoma;fontColor=#FAFAFA;" parent="1" vertex="1">
          <mxGeometry x="237.5" y="510" width="40" height="40" as="geometry" />
        </mxCell>
        <mxCell id="iFBfvALlvyKdv1rGwnyk-47" value="&lt;span style=&quot;color: rgb(250, 250, 250); font-family: Tahoma; font-size: 13px; font-style: normal; font-variant-ligatures: normal; font-variant-caps: normal; font-weight: 400; letter-spacing: normal; orphans: 2; text-align: center; text-indent: 0px; text-transform: none; widows: 2; word-spacing: 0px; -webkit-text-stroke-width: 0px; background-color: rgb(64, 64, 64); text-decoration-thickness: initial; text-decoration-style: initial; text-decoration-color: initial; float: none; display: inline !important;&quot;&gt;Ctrl+X&lt;br style=&quot;font-size: 13px;&quot;&gt;&lt;/span&gt;" style="rounded=1;whiteSpace=wrap;html=1;fontSize=13;fillColor=#404040;fontFamily=Tahoma;fontColor=#FAFAFA;rotation=355;" parent="1" vertex="1">
          <mxGeometry x="196.5" y="520" width="40" height="40" as="geometry" />
        </mxCell>
        <mxCell id="iFBfvALlvyKdv1rGwnyk-48" value="&lt;span style=&quot;font-size: 14px;&quot;&gt;Ctrl+Z&lt;br style=&quot;font-size: 14px;&quot;&gt;&lt;/span&gt;" style="rounded=1;whiteSpace=wrap;html=1;fontSize=14;fillColor=#404040;fontFamily=Tahoma;fontColor=#FAFAFA;rotation=345;" parent="1" vertex="1">
          <mxGeometry x="157.5" y="550" width="40" height="40" as="geometry" />
        </mxCell>
        <mxCell id="iFBfvALlvyKdv1rGwnyk-49" value="ESC" style="rounded=1;whiteSpace=wrap;html=1;fontSize=14;fillColor=#404040;fontFamily=Tahoma;fontColor=#FAFAFA;rotation=345;" parent="1" vertex="1">
          <mxGeometry x="137.5" y="472" width="40" height="40" as="geometry" />
        </mxCell>
        <mxCell id="iFBfvALlvyKdv1rGwnyk-50" value="Tab" style="rounded=1;whiteSpace=wrap;html=1;fontSize=18;fillColor=#404040;fontFamily=Tahoma;fontColor=#FAFAFA;rotation=345;" parent="1" vertex="1">
          <mxGeometry x="147.5" y="511" width="40" height="40" as="geometry" />
        </mxCell>
        <mxCell id="iFBfvALlvyKdv1rGwnyk-52" value="&lt;span style=&quot;color: rgb(250, 250, 250); font-family: sans-serif; font-size: 35px; font-style: normal; font-variant-ligatures: normal; font-variant-caps: normal; font-weight: 400; letter-spacing: normal; orphans: 2; text-align: center; text-indent: 0px; text-transform: none; widows: 2; word-spacing: 0px; -webkit-text-stroke-width: 0px; background-color: rgb(64, 64, 64); text-decoration-thickness: initial; text-decoration-style: initial; text-decoration-color: initial; float: none; display: inline !important;&quot;&gt;↓&lt;/span&gt;" style="rounded=1;whiteSpace=wrap;html=1;fontSize=14;fillColor=#404040;fontFamily=Tahoma;fontColor=#FAFAFA;rotation=5;flipV=0;flipH=0;direction=east;verticalAlign=bottom;" parent="1" vertex="1">
          <mxGeometry x="562.5" y="480" width="40" height="40" as="geometry" />
        </mxCell>
        <mxCell id="iFBfvALlvyKdv1rGwnyk-53" value="&lt;span style=&quot;color: rgb(250, 250, 250); font-family: Tahoma; font-size: 14px; font-style: normal; font-variant-ligatures: normal; font-variant-caps: normal; font-weight: 400; letter-spacing: normal; orphans: 2; text-align: center; text-indent: 0px; text-transform: none; widows: 2; word-spacing: 0px; -webkit-text-stroke-width: 0px; background-color: rgb(64, 64, 64); text-decoration-thickness: initial; text-decoration-style: initial; text-decoration-color: initial; float: none; display: inline !important;&quot;&gt;Page&lt;br&gt;Down&lt;br style=&quot;font-size: 14px;&quot;&gt;&lt;/span&gt;" style="rounded=1;whiteSpace=wrap;html=1;fontSize=14;fillColor=#404040;fontFamily=Tahoma;fontColor=#FAFAFA;flipV=0;flipH=0;direction=east;" parent="1" vertex="1">
          <mxGeometry x="437.5" y="530" width="40" height="40" as="geometry" />
        </mxCell>
        <mxCell id="iFBfvALlvyKdv1rGwnyk-54" value="End" style="rounded=1;whiteSpace=wrap;html=1;fontSize=14;fillColor=#404040;fontFamily=Tahoma;fontColor=#FAFAFA;flipV=0;flipH=0;direction=east;" parent="1" vertex="1">
          <mxGeometry x="517.5" y="430" width="40" height="40" as="geometry" />
        </mxCell>
        <mxCell id="iFBfvALlvyKdv1rGwnyk-55" value="&lt;span style=&quot;background-color: rgb(64, 64, 64);&quot;&gt;Home&lt;/span&gt;" style="rounded=1;whiteSpace=wrap;html=1;fontSize=16;fillColor=#404040;fontFamily=Tahoma;fontColor=#FAFAFA;flipV=0;flipH=0;direction=east;" parent="1" vertex="1">
          <mxGeometry x="477.5" y="440" width="40" height="40" as="geometry" />
        </mxCell>
        <mxCell id="iFBfvALlvyKdv1rGwnyk-56" value="&lt;span style=&quot;color: rgb(250, 250, 250); font-family: Tahoma; font-size: 14px; font-style: normal; font-variant-ligatures: normal; font-variant-caps: normal; font-weight: 400; letter-spacing: normal; orphans: 2; text-align: center; text-indent: 0px; text-transform: none; widows: 2; word-spacing: 0px; -webkit-text-stroke-width: 0px; background-color: rgb(64, 64, 64); text-decoration-thickness: initial; text-decoration-style: initial; text-decoration-color: initial; float: none; display: inline !important;&quot;&gt;Page&lt;br&gt;Up&lt;br style=&quot;font-size: 14px;&quot;&gt;&lt;/span&gt;" style="rounded=1;whiteSpace=wrap;html=1;fontSize=14;fillColor=#404040;fontFamily=Tahoma;fontColor=#FAFAFA;flipV=0;flipH=0;direction=east;" parent="1" vertex="1">
          <mxGeometry x="437.5" y="450" width="40" height="40" as="geometry" />
        </mxCell>
        <mxCell id="iFBfvALlvyKdv1rGwnyk-57" value="&lt;span style=&quot;color: rgb(250, 250, 250); font-family: sans-serif; font-size: 32px; font-style: normal; font-variant-ligatures: normal; font-variant-caps: normal; font-weight: 400; letter-spacing: normal; orphans: 2; text-align: center; text-indent: 0px; text-transform: none; widows: 2; word-spacing: 0px; -webkit-text-stroke-width: 0px; background-color: rgb(64, 64, 64); text-decoration-thickness: initial; text-decoration-style: initial; text-decoration-color: initial; float: none; display: inline !important;&quot;&gt;←&lt;/span&gt;" style="rounded=1;whiteSpace=wrap;html=1;fontSize=32;fillColor=#404040;fontFamily=Tahoma;fontColor=#FAFAFA;flipV=0;flipH=0;direction=east;verticalAlign=bottom;horizontal=1;" parent="1" vertex="1">
          <mxGeometry x="477.5" y="480" width="40" height="40" as="geometry" />
        </mxCell>
        <mxCell id="iFBfvALlvyKdv1rGwnyk-58" value="&lt;span style=&quot;color: rgb(250, 250, 250); font-family: Tahoma; font-size: 11px; font-style: normal; font-variant-ligatures: normal; font-variant-caps: normal; font-weight: 400; letter-spacing: normal; orphans: 2; text-align: center; text-indent: 0px; text-transform: none; widows: 2; word-spacing: 0px; -webkit-text-stroke-width: 0px; background-color: rgb(64, 64, 64); text-decoration-thickness: initial; text-decoration-style: initial; text-decoration-color: initial; float: none; display: inline !important;&quot;&gt;Alt&lt;br&gt;Tab&lt;br style=&quot;font-size: 11px;&quot;&gt;&lt;/span&gt;" style="rounded=1;whiteSpace=wrap;html=1;fontSize=11;fillColor=#404040;fontFamily=Tahoma;fontColor=#FAFAFA;flipV=0;flipH=0;direction=east;verticalAlign=middle;" parent="1" vertex="1">
          <mxGeometry x="437.5" y="490" width="40" height="40" as="geometry" />
        </mxCell>
        <mxCell id="iFBfvALlvyKdv1rGwnyk-59" value="&lt;span style=&quot;color: rgb(250, 250, 250); font-family: Tahoma; font-size: 14px; font-style: normal; font-variant-ligatures: normal; font-variant-caps: normal; font-weight: 400; letter-spacing: normal; orphans: 2; text-align: center; text-indent: 0px; text-transform: none; widows: 2; word-spacing: 0px; -webkit-text-stroke-width: 0px; background-color: rgb(64, 64, 64); text-decoration-thickness: initial; text-decoration-style: initial; text-decoration-color: initial; float: none; display: inline !important;&quot;&gt;End&lt;br style=&quot;font-size: 14px;&quot;&gt;&lt;/span&gt;" style="rounded=1;whiteSpace=wrap;html=1;fontSize=14;fillColor=#404040;fontFamily=Tahoma;fontColor=#FAFAFA;rotation=5;flipV=0;flipH=0;direction=east;" parent="1" vertex="1">
          <mxGeometry x="566.5" y="440" width="40" height="40" as="geometry" />
        </mxCell>
        <mxCell id="iFBfvALlvyKdv1rGwnyk-60" value="&lt;span style=&quot;color: rgb(250, 250, 250); font-family: sans-serif; font-size: 35px; font-style: normal; font-variant-ligatures: normal; font-variant-caps: normal; font-weight: 400; letter-spacing: normal; orphans: 2; text-align: center; text-indent: 0px; text-transform: none; widows: 2; word-spacing: 0px; -webkit-text-stroke-width: 0px; background-color: rgb(64, 64, 64); text-decoration-thickness: initial; text-decoration-style: initial; text-decoration-color: initial; float: none; display: inline !important;&quot;&gt;↑&lt;/span&gt;" style="rounded=1;whiteSpace=wrap;html=1;fontSize=14;fillColor=#404040;fontFamily=Tahoma;fontColor=#FAFAFA;flipV=0;flipH=0;direction=east;" parent="1" vertex="1">
          <mxGeometry x="517.5" y="470" width="40" height="40" as="geometry" />
        </mxCell>
        <mxCell id="iFBfvALlvyKdv1rGwnyk-61" value="&lt;span style=&quot;background-color: rgb(64, 64, 64); font-size: 11px;&quot;&gt;Ctrl&lt;br style=&quot;font-size: 11px;&quot;&gt;Shift&lt;br style=&quot;font-size: 11px;&quot;&gt;Tab&lt;br style=&quot;font-size: 11px;&quot;&gt;&lt;/span&gt;" style="rounded=1;whiteSpace=wrap;html=1;fontSize=11;fillColor=#404040;fontFamily=Tahoma;fontColor=#FAFAFA;flipV=0;flipH=0;direction=east;" parent="1" vertex="1">
          <mxGeometry x="477.5" y="520" width="40" height="40" as="geometry" />
        </mxCell>
        <mxCell id="iFBfvALlvyKdv1rGwnyk-62" value="&lt;span style=&quot;color: rgb(250, 250, 250); font-family: Tahoma; font-size: 11px; font-style: normal; font-variant-ligatures: normal; font-variant-caps: normal; font-weight: 400; letter-spacing: normal; orphans: 2; text-align: center; text-indent: 0px; text-transform: none; widows: 2; word-spacing: 0px; -webkit-text-stroke-width: 0px; background-color: rgb(64, 64, 64); text-decoration-thickness: initial; text-decoration-style: initial; text-decoration-color: initial; float: none; display: inline !important;&quot;&gt;&lt;span style=&quot;font-size: 11px;&quot;&gt;Ctrl&lt;/span&gt;&lt;br style=&quot;border-color: var(--border-color); font-size: 11px;&quot;&gt;&lt;span style=&quot;font-size: 11px;&quot;&gt;Alt&lt;/span&gt;&lt;br style=&quot;border-color: var(--border-color); font-size: 11px;&quot;&gt;&lt;span style=&quot;font-size: 11px;&quot;&gt;Left&lt;/span&gt;&lt;br style=&quot;font-size: 11px;&quot;&gt;&lt;/span&gt;" style="rounded=1;whiteSpace=wrap;html=1;fontSize=11;fillColor=#404040;fontFamily=Tahoma;fontColor=#FAFAFA;flipV=0;flipH=0;direction=east;" parent="1" vertex="1">
          <mxGeometry x="517.5" y="510" width="40" height="40" as="geometry" />
        </mxCell>
        <mxCell id="iFBfvALlvyKdv1rGwnyk-63" value="&lt;span style=&quot;color: rgb(250, 250, 250); font-family: Tahoma; font-size: 11px; font-style: normal; font-variant-ligatures: normal; font-variant-caps: normal; font-weight: 400; letter-spacing: normal; orphans: 2; text-align: center; text-indent: 0px; text-transform: none; widows: 2; word-spacing: 0px; -webkit-text-stroke-width: 0px; background-color: rgb(64, 64, 64); text-decoration-thickness: initial; text-decoration-style: initial; text-decoration-color: initial; float: none; display: inline !important;&quot;&gt;Ctrl&lt;br style=&quot;font-size: 11px;&quot;&gt;Alt&lt;br style=&quot;font-size: 11px;&quot;&gt;Right&lt;br style=&quot;font-size: 11px;&quot;&gt;&lt;/span&gt;" style="rounded=1;whiteSpace=wrap;html=1;fontSize=11;fillColor=#404040;fontFamily=Tahoma;fontColor=#FAFAFA;rotation=5;flipV=0;flipH=0;direction=east;" parent="1" vertex="1">
          <mxGeometry x="558.5" y="520" width="40" height="40" as="geometry" />
        </mxCell>
        <mxCell id="iFBfvALlvyKdv1rGwnyk-64" value="Ctrl&lt;br style=&quot;font-size: 16px;&quot;&gt;Tab" style="rounded=1;whiteSpace=wrap;html=1;fontSize=16;fillColor=#404040;fontFamily=Tahoma;fontColor=#FAFAFA;rotation=15;flipV=0;flipH=0;direction=east;" parent="1" vertex="1">
          <mxGeometry x="597.5" y="540" width="40" height="40" as="geometry" />
        </mxCell>
        <mxCell id="iFBfvALlvyKdv1rGwnyk-65" value="&lt;span style=&quot;font-family: &amp;quot;segoe ui emoji&amp;quot;, &amp;quot;apple color emoji&amp;quot;, &amp;quot;noto color emoji&amp;quot;; font-size: 15px;&quot;&gt;⌦&lt;/span&gt;" style="rounded=1;whiteSpace=wrap;html=1;fontSize=16;fillColor=#404040;fontFamily=Tahoma;fontColor=#FAFAFA;rotation=15;flipV=0;flipH=0;direction=east;" parent="1" vertex="1">
          <mxGeometry x="619.5" y="461" width="40" height="40" as="geometry" />
        </mxCell>
        <mxCell id="iFBfvALlvyKdv1rGwnyk-66" value="&lt;span style=&quot;color: rgb(250, 250, 250); font-family: sans-serif; font-size: 32px; font-style: normal; font-variant-ligatures: normal; font-variant-caps: normal; font-weight: 400; letter-spacing: normal; orphans: 2; text-align: center; text-indent: 0px; text-transform: none; widows: 2; word-spacing: 0px; -webkit-text-stroke-width: 0px; background-color: rgb(64, 64, 64); text-decoration-thickness: initial; text-decoration-style: initial; text-decoration-color: initial; float: none; display: inline !important;&quot;&gt;→&lt;/span&gt;" style="rounded=1;whiteSpace=wrap;html=1;fontSize=32;fillColor=#404040;fontFamily=Tahoma;fontColor=#FAFAFA;rotation=15;flipV=0;flipH=0;direction=east;verticalAlign=bottom;" parent="1" vertex="1">
          <mxGeometry x="608.5" y="501" width="40" height="40" as="geometry" />
        </mxCell>
        <mxCell id="iFBfvALlvyKdv1rGwnyk-67" value="" style="rounded=1;whiteSpace=wrap;html=1;fontSize=20;fillColor=#0050ef;fontFamily=Tahoma;fontColor=#ffffff;rotation=345;flipV=0;flipH=0;direction=east;strokeColor=#FFFFFF;" parent="1" vertex="1">
          <mxGeometry x="457.5" y="580" width="40" height="40" as="geometry" />
        </mxCell>
        <mxCell id="iFBfvALlvyKdv1rGwnyk-134" value="ì" style="rounded=1;whiteSpace=wrap;html=1;fontSize=20;fillColor=#404040;fontFamily=Tahoma;fontColor=#FAFAFA;rotation=355;" parent="1" vertex="1">
          <mxGeometry x="191" y="830" width="40" height="40" as="geometry" />
        </mxCell>
        <mxCell id="iFBfvALlvyKdv1rGwnyk-135" value="Symbols" style="rounded=0;whiteSpace=wrap;html=1;fontSize=20;fillColor=#60a917;glass=0;sketch=0;fontFamily=Lucida Console;strokeColor=#FFFFFF;fontColor=#ffffff;" parent="1" vertex="1">
          <mxGeometry x="245" y="710" width="297" height="30" as="geometry" />
        </mxCell>
        <mxCell id="iFBfvALlvyKdv1rGwnyk-136" value="~" style="rounded=1;whiteSpace=wrap;html=1;fontSize=20;fillColor=#404040;fontFamily=Tahoma;fontColor=#FAFAFA;" parent="1" vertex="1">
          <mxGeometry x="315" y="880" width="40" height="40" as="geometry" />
        </mxCell>
        <mxCell id="iFBfvALlvyKdv1rGwnyk-137" value="à" style="rounded=1;whiteSpace=wrap;html=1;fontSize=20;fillColor=#404040;fontFamily=Tahoma;fontColor=#FAFAFA;" parent="1" vertex="1">
          <mxGeometry x="235" y="780" width="40" height="40" as="geometry" />
        </mxCell>
        <mxCell id="iFBfvALlvyKdv1rGwnyk-138" value="ù" style="rounded=1;whiteSpace=wrap;html=1;fontSize=20;fillColor=#404040;fontFamily=Tahoma;fontColor=#FAFAFA;" parent="1" vertex="1">
          <mxGeometry x="275" y="790" width="40" height="40" as="geometry" />
        </mxCell>
        <mxCell id="iFBfvALlvyKdv1rGwnyk-139" value="^" style="rounded=1;whiteSpace=wrap;html=1;fontSize=20;fillColor=#404040;fontFamily=Tahoma;fontColor=#FAFAFA;" parent="1" vertex="1">
          <mxGeometry x="315" y="800" width="40" height="40" as="geometry" />
        </mxCell>
        <mxCell id="iFBfvALlvyKdv1rGwnyk-140" value="è é" style="rounded=1;whiteSpace=wrap;html=1;fontSize=20;fillColor=#666666;fontFamily=Tahoma;fontColor=#FAFAFA;" parent="1" vertex="1">
          <mxGeometry x="275" y="830" width="40" height="40" as="geometry" />
        </mxCell>
        <mxCell id="iFBfvALlvyKdv1rGwnyk-141" value="°" style="rounded=1;whiteSpace=wrap;html=1;fontSize=20;fillColor=#404040;fontFamily=Tahoma;fontColor=#FAFAFA;" parent="1" vertex="1">
          <mxGeometry x="315" y="840" width="40" height="40" as="geometry" />
        </mxCell>
        <mxCell id="iFBfvALlvyKdv1rGwnyk-142" value="&quot;" style="rounded=1;whiteSpace=wrap;html=1;fontSize=20;fillColor=#404040;fontFamily=Tahoma;fontColor=#FAFAFA;rotation=-5;" parent="1" vertex="1">
          <mxGeometry x="188" y="790" width="40" height="40" as="geometry" />
        </mxCell>
        <mxCell id="iFBfvALlvyKdv1rGwnyk-143" value="ò" style="rounded=1;whiteSpace=wrap;html=1;fontSize=20;fillColor=#404040;fontFamily=Tahoma;fontColor=#FAFAFA;" parent="1" vertex="1">
          <mxGeometry x="235" y="820" width="40" height="40" as="geometry" />
        </mxCell>
        <mxCell id="iFBfvALlvyKdv1rGwnyk-144" value="&lt;span style=&quot;font-size: 17px;&quot;&gt;( )&lt;/span&gt;" style="rounded=1;whiteSpace=wrap;html=1;fontSize=17;fillColor=#666666;fontFamily=Tahoma;fontColor=#FFFFFF;labelBackgroundColor=none;labelBorderColor=none;" parent="1" vertex="1">
          <mxGeometry x="275" y="870" width="40" height="40" as="geometry" />
        </mxCell>
        <mxCell id="iFBfvALlvyKdv1rGwnyk-145" value="[ ]" style="rounded=1;whiteSpace=wrap;html=1;fontSize=17;fillColor=#666666;fontFamily=Tahoma;fontColor=#FAFAFA;labelBorderColor=none;labelBackgroundColor=none;" parent="1" vertex="1">
          <mxGeometry x="235" y="860" width="40" height="40" as="geometry" />
        </mxCell>
        <mxCell id="iFBfvALlvyKdv1rGwnyk-146" value="{ }" style="rounded=1;whiteSpace=wrap;html=1;fontSize=15;fillColor=#666666;fontFamily=Tahoma;fontColor=#FAFAFA;rotation=355;" parent="1" vertex="1">
          <mxGeometry x="194" y="870" width="40" height="40" as="geometry" />
        </mxCell>
        <mxCell id="iFBfvALlvyKdv1rGwnyk-147" value="%" style="rounded=1;whiteSpace=wrap;html=1;fontSize=20;fillColor=#404040;fontFamily=Tahoma;fontColor=#FAFAFA;rotation=345;" parent="1" vertex="1">
          <mxGeometry x="155" y="900" width="40" height="40" as="geometry" />
        </mxCell>
        <mxCell id="iFBfvALlvyKdv1rGwnyk-148" value="!" style="rounded=1;whiteSpace=wrap;html=1;fontSize=20;fillColor=#404040;fontFamily=Tahoma;fontColor=#FAFAFA;rotation=345;" parent="1" vertex="1">
          <mxGeometry x="135" y="822" width="40" height="40" as="geometry" />
        </mxCell>
        <mxCell id="iFBfvALlvyKdv1rGwnyk-149" value="&amp;lt; &amp;gt;" style="rounded=1;whiteSpace=wrap;html=1;fontSize=20;fillColor=#666666;fontFamily=Tahoma;fontColor=#FAFAFA;rotation=345;" parent="1" vertex="1">
          <mxGeometry x="145" y="861" width="40" height="40" as="geometry" />
        </mxCell>
        <mxCell id="iFBfvALlvyKdv1rGwnyk-151" value="-" style="rounded=1;whiteSpace=wrap;html=1;fontSize=20;fillColor=#404040;fontFamily=Tahoma;rotation=5;flipV=0;flipH=0;direction=east;strokeColor=#000000;fontColor=#FFFFFF;" parent="1" vertex="1">
          <mxGeometry x="560" y="830" width="40" height="40" as="geometry" />
        </mxCell>
        <mxCell id="iFBfvALlvyKdv1rGwnyk-152" value="&lt;span style=&quot;background-color: rgb(64, 64, 64);&quot;&gt;`&lt;/span&gt;" style="rounded=1;whiteSpace=wrap;html=1;fontSize=20;fillColor=#404040;fontFamily=Tahoma;fontColor=#FAFAFA;flipV=0;flipH=0;direction=east;" parent="1" vertex="1">
          <mxGeometry x="435" y="880" width="40" height="40" as="geometry" />
        </mxCell>
        <mxCell id="iFBfvALlvyKdv1rGwnyk-153" value="#" style="rounded=1;whiteSpace=wrap;html=1;fontSize=20;fillColor=#404040;fontFamily=Tahoma;fontColor=#FAFAFA;flipV=0;flipH=0;direction=east;" parent="1" vertex="1">
          <mxGeometry x="515" y="780" width="40" height="40" as="geometry" />
        </mxCell>
        <mxCell id="iFBfvALlvyKdv1rGwnyk-154" value="@" style="rounded=1;whiteSpace=wrap;html=1;fontSize=20;fillColor=#404040;fontFamily=Tahoma;fontColor=#FAFAFA;flipV=0;flipH=0;direction=east;" parent="1" vertex="1">
          <mxGeometry x="475" y="790" width="40" height="40" as="geometry" />
        </mxCell>
        <mxCell id="iFBfvALlvyKdv1rGwnyk-155" value="\" style="rounded=1;whiteSpace=wrap;html=1;fontSize=20;fillColor=#404040;fontFamily=Tahoma;fontColor=#FAFAFA;flipV=0;flipH=0;direction=east;" parent="1" vertex="1">
          <mxGeometry x="435" y="800" width="40" height="40" as="geometry" />
        </mxCell>
        <mxCell id="iFBfvALlvyKdv1rGwnyk-156" value="=" style="rounded=1;whiteSpace=wrap;html=1;fontSize=20;fillColor=#404040;fontFamily=Tahoma;fontColor=#FAFAFA;flipV=0;flipH=0;direction=east;" parent="1" vertex="1">
          <mxGeometry x="475" y="830" width="40" height="40" as="geometry" />
        </mxCell>
        <mxCell id="iFBfvALlvyKdv1rGwnyk-157" value="$ €&lt;br&gt;£ ¥" style="rounded=1;whiteSpace=wrap;html=1;fontSize=17;fillColor=#666666;fontFamily=Tahoma;fontColor=#FAFAFA;flipV=0;flipH=0;direction=east;" parent="1" vertex="1">
          <mxGeometry x="435" y="840" width="40" height="40" as="geometry" />
        </mxCell>
        <mxCell id="iFBfvALlvyKdv1rGwnyk-158" value="?" style="rounded=1;whiteSpace=wrap;html=1;fontSize=20;fillColor=#404040;fontFamily=Tahoma;fontColor=#FAFAFA;rotation=5;flipV=0;flipH=0;direction=east;" parent="1" vertex="1">
          <mxGeometry x="564" y="790" width="40" height="40" as="geometry" />
        </mxCell>
        <mxCell id="iFBfvALlvyKdv1rGwnyk-159" value="/" style="rounded=1;whiteSpace=wrap;html=1;fontSize=20;fillColor=#404040;fontFamily=Tahoma;fontColor=#FAFAFA;flipV=0;flipH=0;direction=east;" parent="1" vertex="1">
          <mxGeometry x="515" y="820" width="40" height="40" as="geometry" />
        </mxCell>
        <mxCell id="iFBfvALlvyKdv1rGwnyk-160" value="&amp;amp;" style="rounded=1;whiteSpace=wrap;html=1;fontSize=20;fillColor=#404040;fontFamily=Tahoma;fontColor=#FAFAFA;flipV=0;flipH=0;direction=east;" parent="1" vertex="1">
          <mxGeometry x="475" y="870" width="40" height="40" as="geometry" />
        </mxCell>
        <mxCell id="iFBfvALlvyKdv1rGwnyk-161" value="|" style="rounded=1;whiteSpace=wrap;html=1;fontSize=20;fillColor=#404040;fontFamily=Tahoma;fontColor=#FAFAFA;flipV=0;flipH=0;direction=east;" parent="1" vertex="1">
          <mxGeometry x="515" y="860" width="40" height="40" as="geometry" />
        </mxCell>
        <mxCell id="iFBfvALlvyKdv1rGwnyk-162" value="*" style="rounded=1;whiteSpace=wrap;html=1;fontSize=20;fillColor=#404040;fontFamily=Tahoma;fontColor=#FAFAFA;rotation=5;flipV=0;flipH=0;direction=east;" parent="1" vertex="1">
          <mxGeometry x="556" y="870" width="40" height="40" as="geometry" />
        </mxCell>
        <mxCell id="iFBfvALlvyKdv1rGwnyk-163" value="+" style="rounded=1;whiteSpace=wrap;html=1;fontSize=20;fillColor=#404040;fontFamily=Tahoma;fontColor=#FAFAFA;rotation=15;flipV=0;flipH=0;direction=east;" parent="1" vertex="1">
          <mxGeometry x="595" y="890" width="40" height="40" as="geometry" />
        </mxCell>
        <mxCell id="iFBfvALlvyKdv1rGwnyk-164" value="&lt;span style=&quot;color: rgb(250, 250, 250); font-family: Tahoma; font-size: 10px; font-style: normal; font-variant-ligatures: normal; font-variant-caps: normal; font-weight: 400; letter-spacing: normal; orphans: 2; text-align: center; text-indent: 0px; text-transform: none; widows: 2; word-spacing: 0px; -webkit-text-stroke-width: 0px; background-color: rgb(64, 64, 64); text-decoration-thickness: initial; text-decoration-style: initial; text-decoration-color: initial; float: none; display: inline !important;&quot;&gt;Ctrl&lt;br style=&quot;font-size: 10px;&quot;&gt;+&lt;br style=&quot;font-size: 10px;&quot;&gt;&lt;span style=&quot;font-family: &amp;quot;segoe ui emoji&amp;quot;, &amp;quot;apple color emoji&amp;quot;, &amp;quot;noto color emoji&amp;quot;; font-size: 10px;&quot;&gt;⌫&lt;/span&gt;&lt;br style=&quot;font-size: 10px;&quot;&gt;&lt;/span&gt;" style="rounded=1;whiteSpace=wrap;html=1;fontSize=10;fillColor=#404040;fontFamily=Tahoma;fontColor=#FAFAFA;rotation=15;flipV=0;flipH=0;direction=east;spacing=0;horizontal=1;verticalAlign=middle;" parent="1" vertex="1">
          <mxGeometry x="617" y="812" width="40" height="40" as="geometry" />
        </mxCell>
        <mxCell id="iFBfvALlvyKdv1rGwnyk-165" value="_" style="rounded=1;whiteSpace=wrap;html=1;fontSize=20;fillColor=#404040;fontFamily=Tahoma;fontColor=#FAFAFA;rotation=15;flipV=0;flipH=0;direction=east;" parent="1" vertex="1">
          <mxGeometry x="606" y="851" width="40" height="40" as="geometry" />
        </mxCell>
        <mxCell id="iFBfvALlvyKdv1rGwnyk-166" value="" style="rounded=1;whiteSpace=wrap;html=1;fontSize=20;fillColor=#404040;fontFamily=Tahoma;fontColor=#FAFAFA;rotation=345;flipV=0;flipH=0;direction=east;" parent="1" vertex="1">
          <mxGeometry x="455" y="930" width="40" height="40" as="geometry" />
        </mxCell>
        <mxCell id="iFBfvALlvyKdv1rGwnyk-233" value="1" style="rounded=1;whiteSpace=wrap;html=1;fontSize=20;fillColor=#404040;fontFamily=Tahoma;fontColor=#FAFAFA;rotation=355;" parent="1" vertex="1">
          <mxGeometry x="193.5" y="1200" width="40" height="40" as="geometry" />
        </mxCell>
        <mxCell id="iFBfvALlvyKdv1rGwnyk-234" value="Numbers/Functions" style="rounded=0;whiteSpace=wrap;html=1;fontSize=20;fillColor=#D80073;glass=0;sketch=0;fontFamily=Lucida Console;strokeColor=#FFFFFF;fontColor=#FFFFFF;" parent="1" vertex="1">
          <mxGeometry x="247.5" y="1080" width="297" height="30" as="geometry" />
        </mxCell>
        <mxCell id="iFBfvALlvyKdv1rGwnyk-235" value="/" style="rounded=1;whiteSpace=wrap;html=1;fontSize=20;fillColor=#404040;fontFamily=Tahoma;fontColor=#FAFAFA;" parent="1" vertex="1">
          <mxGeometry x="317.5" y="1250" width="40" height="40" as="geometry" />
        </mxCell>
        <mxCell id="iFBfvALlvyKdv1rGwnyk-236" value="&lt;span style=&quot;color: rgb(250, 250, 250); font-family: Tahoma; font-size: 20px; font-style: normal; font-variant-ligatures: normal; font-variant-caps: normal; font-weight: 400; letter-spacing: normal; orphans: 2; text-align: center; text-indent: 0px; text-transform: none; widows: 2; word-spacing: 0px; -webkit-text-stroke-width: 0px; background-color: rgb(64, 64, 64); text-decoration-thickness: initial; text-decoration-style: initial; text-decoration-color: initial; float: none; display: inline !important;&quot;&gt;8&lt;/span&gt;" style="rounded=1;whiteSpace=wrap;html=1;fontSize=20;fillColor=#404040;fontFamily=Tahoma;fontColor=#FAFAFA;" parent="1" vertex="1">
          <mxGeometry x="237.5" y="1150" width="40" height="40" as="geometry" />
        </mxCell>
        <mxCell id="iFBfvALlvyKdv1rGwnyk-237" value="&lt;span style=&quot;color: rgb(250, 250, 250); font-family: Tahoma; font-size: 20px; font-style: normal; font-variant-ligatures: normal; font-variant-caps: normal; font-weight: 400; letter-spacing: normal; orphans: 2; text-align: center; text-indent: 0px; text-transform: none; widows: 2; word-spacing: 0px; -webkit-text-stroke-width: 0px; background-color: rgb(64, 64, 64); text-decoration-thickness: initial; text-decoration-style: initial; text-decoration-color: initial; float: none; display: inline !important;&quot;&gt;9&lt;/span&gt;" style="rounded=1;whiteSpace=wrap;html=1;fontSize=20;fillColor=#404040;fontFamily=Tahoma;fontColor=#FAFAFA;" parent="1" vertex="1">
          <mxGeometry x="277.5" y="1160" width="40" height="40" as="geometry" />
        </mxCell>
        <mxCell id="iFBfvALlvyKdv1rGwnyk-238" value="+" style="rounded=1;whiteSpace=wrap;html=1;fontSize=20;fillColor=#404040;fontFamily=Tahoma;fontColor=#FAFAFA;" parent="1" vertex="1">
          <mxGeometry x="317.5" y="1170" width="40" height="40" as="geometry" />
        </mxCell>
        <mxCell id="iFBfvALlvyKdv1rGwnyk-239" value="&lt;span style=&quot;color: rgb(250, 250, 250); font-family: Tahoma; font-size: 20px; font-style: normal; font-variant-ligatures: normal; font-variant-caps: normal; font-weight: 400; letter-spacing: normal; orphans: 2; text-align: center; text-indent: 0px; text-transform: none; widows: 2; word-spacing: 0px; -webkit-text-stroke-width: 0px; background-color: rgb(64, 64, 64); text-decoration-thickness: initial; text-decoration-style: initial; text-decoration-color: initial; float: none; display: inline !important;&quot;&gt;3&lt;/span&gt;" style="rounded=1;whiteSpace=wrap;html=1;fontSize=20;fillColor=#404040;fontFamily=Tahoma;fontColor=#FAFAFA;" parent="1" vertex="1">
          <mxGeometry x="277.5" y="1200" width="40" height="40" as="geometry" />
        </mxCell>
        <mxCell id="iFBfvALlvyKdv1rGwnyk-240" value="-" style="rounded=1;whiteSpace=wrap;html=1;fontSize=20;fillColor=#404040;fontFamily=Tahoma;fontColor=#FAFAFA;" parent="1" vertex="1">
          <mxGeometry x="317.5" y="1210" width="40" height="40" as="geometry" />
        </mxCell>
        <mxCell id="iFBfvALlvyKdv1rGwnyk-241" value="&lt;span style=&quot;color: rgb(250, 250, 250); font-family: Tahoma; font-size: 20px; font-style: normal; font-variant-ligatures: normal; font-variant-caps: normal; font-weight: 400; letter-spacing: normal; orphans: 2; text-align: center; text-indent: 0px; text-transform: none; widows: 2; word-spacing: 0px; -webkit-text-stroke-width: 0px; background-color: rgb(64, 64, 64); text-decoration-thickness: initial; text-decoration-style: initial; text-decoration-color: initial; float: none; display: inline !important;&quot;&gt;7&lt;/span&gt;" style="rounded=1;whiteSpace=wrap;html=1;fontSize=20;fillColor=#404040;fontFamily=Tahoma;fontColor=#FAFAFA;rotation=-5;" parent="1" vertex="1">
          <mxGeometry x="190.5" y="1160" width="40" height="40" as="geometry" />
        </mxCell>
        <mxCell id="iFBfvALlvyKdv1rGwnyk-242" value="&lt;span style=&quot;color: rgb(250, 250, 250); font-family: Tahoma; font-size: 20px; font-style: normal; font-variant-ligatures: normal; font-variant-caps: normal; font-weight: 400; letter-spacing: normal; orphans: 2; text-align: center; text-indent: 0px; text-transform: none; widows: 2; word-spacing: 0px; -webkit-text-stroke-width: 0px; background-color: rgb(64, 64, 64); text-decoration-thickness: initial; text-decoration-style: initial; text-decoration-color: initial; float: none; display: inline !important;&quot;&gt;2&lt;/span&gt;" style="rounded=1;whiteSpace=wrap;html=1;fontSize=20;fillColor=#404040;fontFamily=Tahoma;fontColor=#FAFAFA;" parent="1" vertex="1">
          <mxGeometry x="237.5" y="1190" width="40" height="40" as="geometry" />
        </mxCell>
        <mxCell id="iFBfvALlvyKdv1rGwnyk-243" value="&lt;span style=&quot;color: rgb(250, 250, 250); font-family: Tahoma; font-size: 20px; font-style: normal; font-variant-ligatures: normal; font-variant-caps: normal; font-weight: 400; letter-spacing: normal; orphans: 2; text-align: center; text-indent: 0px; text-transform: none; widows: 2; word-spacing: 0px; -webkit-text-stroke-width: 0px; background-color: rgb(64, 64, 64); text-decoration-thickness: initial; text-decoration-style: initial; text-decoration-color: initial; float: none; display: inline !important;&quot;&gt;6&lt;/span&gt;" style="rounded=1;whiteSpace=wrap;html=1;fontSize=20;fillColor=#404040;fontFamily=Tahoma;fontColor=#FAFAFA;" parent="1" vertex="1">
          <mxGeometry x="277.5" y="1240" width="40" height="40" as="geometry" />
        </mxCell>
        <mxCell id="iFBfvALlvyKdv1rGwnyk-244" value="&lt;span style=&quot;color: rgb(250, 250, 250); font-family: Tahoma; font-size: 20px; font-style: normal; font-variant-ligatures: normal; font-variant-caps: normal; font-weight: 400; letter-spacing: normal; orphans: 2; text-align: center; text-indent: 0px; text-transform: none; widows: 2; word-spacing: 0px; -webkit-text-stroke-width: 0px; background-color: rgb(64, 64, 64); text-decoration-thickness: initial; text-decoration-style: initial; text-decoration-color: initial; float: none; display: inline !important;&quot;&gt;5&lt;/span&gt;" style="rounded=1;whiteSpace=wrap;html=1;fontSize=20;fillColor=#404040;fontFamily=Tahoma;fontColor=#FAFAFA;" parent="1" vertex="1">
          <mxGeometry x="237.5" y="1230" width="40" height="40" as="geometry" />
        </mxCell>
        <mxCell id="iFBfvALlvyKdv1rGwnyk-245" value="&lt;span style=&quot;color: rgb(250, 250, 250); font-family: Tahoma; font-size: 20px; font-style: normal; font-variant-ligatures: normal; font-variant-caps: normal; font-weight: 400; letter-spacing: normal; orphans: 2; text-align: center; text-indent: 0px; text-transform: none; widows: 2; word-spacing: 0px; -webkit-text-stroke-width: 0px; background-color: rgb(64, 64, 64); text-decoration-thickness: initial; text-decoration-style: initial; text-decoration-color: initial; float: none; display: inline !important;&quot;&gt;4&lt;/span&gt;" style="rounded=1;whiteSpace=wrap;html=1;fontSize=20;fillColor=#404040;fontFamily=Tahoma;fontColor=#FAFAFA;rotation=355;" parent="1" vertex="1">
          <mxGeometry x="196.5" y="1240" width="40" height="40" as="geometry" />
        </mxCell>
        <mxCell id="iFBfvALlvyKdv1rGwnyk-246" value="*" style="rounded=1;whiteSpace=wrap;html=1;fontSize=20;fillColor=#404040;fontFamily=Tahoma;fontColor=#FAFAFA;rotation=345;" parent="1" vertex="1">
          <mxGeometry x="157.5" y="1270" width="40" height="40" as="geometry" />
        </mxCell>
        <mxCell id="iFBfvALlvyKdv1rGwnyk-247" value="." style="rounded=1;whiteSpace=wrap;html=1;fontSize=20;fillColor=#404040;fontFamily=Tahoma;fontColor=#FFFFFF;rotation=345;strokeColor=#FFFFFF;" parent="1" vertex="1">
          <mxGeometry x="137.5" y="1192" width="40" height="40" as="geometry" />
        </mxCell>
        <mxCell id="iFBfvALlvyKdv1rGwnyk-248" value="&lt;span style=&quot;color: rgb(250, 250, 250); font-family: Tahoma; font-size: 20px; font-style: normal; font-variant-ligatures: normal; font-variant-caps: normal; font-weight: 400; letter-spacing: normal; orphans: 2; text-align: center; text-indent: 0px; text-transform: none; widows: 2; word-spacing: 0px; -webkit-text-stroke-width: 0px; background-color: rgb(64, 64, 64); text-decoration-thickness: initial; text-decoration-style: initial; text-decoration-color: initial; float: none; display: inline !important;&quot;&gt;0&lt;/span&gt;" style="rounded=1;whiteSpace=wrap;html=1;fontSize=20;fillColor=#404040;fontFamily=Tahoma;fontColor=#FAFAFA;rotation=345;" parent="1" vertex="1">
          <mxGeometry x="147.5" y="1231" width="40" height="40" as="geometry" />
        </mxCell>
        <mxCell id="iFBfvALlvyKdv1rGwnyk-249" value="" style="rounded=1;whiteSpace=wrap;html=1;fontSize=20;fillColor=#d80073;fontFamily=Tahoma;fontColor=#ffffff;rotation=15;strokeColor=#FFFFFF;" parent="1" vertex="1">
          <mxGeometry x="297.5" y="1300" width="40" height="40" as="geometry" />
        </mxCell>
        <mxCell id="iFBfvALlvyKdv1rGwnyk-316" value="F6" style="rounded=1;whiteSpace=wrap;html=1;fontSize=20;fillColor=#404040;fontFamily=Tahoma;fontColor=#FAFAFA;rotation=5;flipV=0;flipH=0;direction=east;" parent="1" vertex="1">
          <mxGeometry x="560" y="1200" width="40" height="40" as="geometry" />
        </mxCell>
        <mxCell id="iFBfvALlvyKdv1rGwnyk-317" value="F14" style="rounded=1;whiteSpace=wrap;html=1;fontSize=20;fillColor=#404040;fontFamily=Tahoma;fontColor=#FAFAFA;flipV=0;flipH=0;direction=east;" parent="1" vertex="1">
          <mxGeometry x="435" y="1250" width="40" height="40" as="geometry" />
        </mxCell>
        <mxCell id="iFBfvALlvyKdv1rGwnyk-318" value="F8" style="rounded=1;whiteSpace=wrap;html=1;fontSize=20;fillColor=#404040;fontFamily=Tahoma;fontColor=#FAFAFA;flipV=0;flipH=0;direction=east;" parent="1" vertex="1">
          <mxGeometry x="515" y="1150" width="40" height="40" as="geometry" />
        </mxCell>
        <mxCell id="iFBfvALlvyKdv1rGwnyk-319" value="F7" style="rounded=1;whiteSpace=wrap;html=1;fontSize=20;fillColor=#404040;fontFamily=Tahoma;fontColor=#FAFAFA;flipV=0;flipH=0;direction=east;" parent="1" vertex="1">
          <mxGeometry x="475" y="1160" width="40" height="40" as="geometry" />
        </mxCell>
        <mxCell id="iFBfvALlvyKdv1rGwnyk-320" value="&lt;span style=&quot;color: rgb(250, 250, 250); font-family: Tahoma; font-size: 20px; font-style: normal; font-variant-ligatures: normal; font-variant-caps: normal; font-weight: 400; letter-spacing: normal; orphans: 2; text-align: center; text-indent: 0px; text-transform: none; widows: 2; word-spacing: 0px; -webkit-text-stroke-width: 0px; background-color: rgb(64, 64, 64); text-decoration-thickness: initial; text-decoration-style: initial; text-decoration-color: initial; float: none; display: inline !important;&quot;&gt;F10&lt;br style=&quot;font-size: 20px;&quot;&gt;&lt;/span&gt;" style="rounded=1;whiteSpace=wrap;html=1;fontSize=20;fillColor=#404040;fontFamily=Tahoma;fontColor=#FAFAFA;flipV=0;flipH=0;direction=east;" parent="1" vertex="1">
          <mxGeometry x="435" y="1170" width="40" height="40" as="geometry" />
        </mxCell>
        <mxCell id="iFBfvALlvyKdv1rGwnyk-321" value="&lt;span style=&quot;background-color: rgb(64, 64, 64); font-size: 20px;&quot;&gt;F4&lt;br style=&quot;font-size: 20px;&quot;&gt;&lt;/span&gt;" style="rounded=1;whiteSpace=wrap;html=1;fontSize=20;fillColor=#404040;fontFamily=Tahoma;fontColor=#FAFAFA;flipV=0;flipH=0;direction=east;" parent="1" vertex="1">
          <mxGeometry x="475" y="1200" width="40" height="40" as="geometry" />
        </mxCell>
        <mxCell id="iFBfvALlvyKdv1rGwnyk-322" value="&lt;span style=&quot;color: rgb(250, 250, 250); font-family: Tahoma; font-size: 20px; font-style: normal; font-variant-ligatures: normal; font-variant-caps: normal; font-weight: 400; letter-spacing: normal; orphans: 2; text-align: center; text-indent: 0px; text-transform: none; widows: 2; word-spacing: 0px; -webkit-text-stroke-width: 0px; background-color: rgb(64, 64, 64); text-decoration-thickness: initial; text-decoration-style: initial; text-decoration-color: initial; float: none; display: inline !important;&quot;&gt;F13&lt;br style=&quot;font-size: 20px;&quot;&gt;&lt;/span&gt;" style="rounded=1;whiteSpace=wrap;html=1;fontSize=20;fillColor=#404040;fontFamily=Tahoma;fontColor=#FAFAFA;flipV=0;flipH=0;direction=east;" parent="1" vertex="1">
          <mxGeometry x="435" y="1210" width="40" height="40" as="geometry" />
        </mxCell>
        <mxCell id="iFBfvALlvyKdv1rGwnyk-323" value="F9" style="rounded=1;whiteSpace=wrap;html=1;fontSize=20;fillColor=#404040;fontFamily=Tahoma;fontColor=#FAFAFA;rotation=5;flipV=0;flipH=0;direction=east;" parent="1" vertex="1">
          <mxGeometry x="564" y="1160" width="40" height="40" as="geometry" />
        </mxCell>
        <mxCell id="iFBfvALlvyKdv1rGwnyk-324" value="F5" style="rounded=1;whiteSpace=wrap;html=1;fontSize=20;fillColor=#404040;fontFamily=Tahoma;fontColor=#FAFAFA;flipV=0;flipH=0;direction=east;" parent="1" vertex="1">
          <mxGeometry x="515" y="1190" width="40" height="40" as="geometry" />
        </mxCell>
        <mxCell id="iFBfvALlvyKdv1rGwnyk-325" value="F1" style="rounded=1;whiteSpace=wrap;html=1;fontSize=20;fillColor=#404040;fontFamily=Tahoma;fontColor=#FAFAFA;flipV=0;flipH=0;direction=east;" parent="1" vertex="1">
          <mxGeometry x="475" y="1240" width="40" height="40" as="geometry" />
        </mxCell>
        <mxCell id="iFBfvALlvyKdv1rGwnyk-326" value="&lt;span style=&quot;background-color: rgb(64, 64, 64);&quot;&gt;F2&lt;/span&gt;" style="rounded=1;whiteSpace=wrap;html=1;fontSize=20;fillColor=#404040;fontFamily=Tahoma;fontColor=#FAFAFA;flipV=0;flipH=0;direction=east;" parent="1" vertex="1">
          <mxGeometry x="515" y="1230" width="40" height="40" as="geometry" />
        </mxCell>
        <mxCell id="iFBfvALlvyKdv1rGwnyk-327" value="F3" style="rounded=1;whiteSpace=wrap;html=1;fontSize=20;fillColor=#404040;fontFamily=Tahoma;fontColor=#FAFAFA;rotation=5;flipV=0;flipH=0;direction=east;" parent="1" vertex="1">
          <mxGeometry x="556" y="1240" width="40" height="40" as="geometry" />
        </mxCell>
        <mxCell id="iFBfvALlvyKdv1rGwnyk-328" value="F12" style="rounded=1;whiteSpace=wrap;html=1;fontSize=20;fillColor=#404040;fontFamily=Tahoma;fontColor=#FAFAFA;rotation=15;flipV=0;flipH=0;direction=east;" parent="1" vertex="1">
          <mxGeometry x="595" y="1260" width="40" height="40" as="geometry" />
        </mxCell>
        <mxCell id="iFBfvALlvyKdv1rGwnyk-329" value="&lt;span style=&quot;color: rgb(250, 250, 250); font-family: &amp;quot;segoe ui emoji&amp;quot;, &amp;quot;apple color emoji&amp;quot;, &amp;quot;noto color emoji&amp;quot;; font-size: 15px;&quot;&gt;⌫&lt;/span&gt;" style="rounded=1;whiteSpace=wrap;html=1;fontSize=20;fillColor=#404040;fontFamily=Tahoma;fontColor=#FFFFFF;rotation=15;flipV=0;flipH=0;direction=east;strokeColor=#FFFFFF;" parent="1" vertex="1">
          <mxGeometry x="617" y="1182" width="40" height="40" as="geometry" />
        </mxCell>
        <mxCell id="iFBfvALlvyKdv1rGwnyk-330" value="F11" style="rounded=1;whiteSpace=wrap;html=1;fontSize=20;fillColor=#404040;fontFamily=Tahoma;fontColor=#FAFAFA;rotation=15;flipV=0;flipH=0;direction=east;" parent="1" vertex="1">
          <mxGeometry x="606" y="1221" width="40" height="40" as="geometry" />
        </mxCell>
        <mxCell id="iFBfvALlvyKdv1rGwnyk-331" value="" style="rounded=1;whiteSpace=wrap;html=1;fontSize=15;fillColor=#d80073;fontFamily=Tahoma;fontColor=#ffffff;rotation=345;flipV=0;flipH=0;direction=east;strokeColor=#FFFFFF;" parent="1" vertex="1">
          <mxGeometry x="455" y="1300" width="40" height="40" as="geometry" />
        </mxCell>
        <mxCell id="iFBfvALlvyKdv1rGwnyk-332" value="" style="rounded=1;whiteSpace=wrap;html=1;fontSize=14;fillColor=#404040;fontFamily=Tahoma;fontColor=#FAFAFA;rotation=355;" parent="1" vertex="1">
          <mxGeometry x="193.5" y="1570" width="40" height="40" as="geometry" />
        </mxCell>
        <mxCell id="iFBfvALlvyKdv1rGwnyk-333" value="Keyboard" style="rounded=0;whiteSpace=wrap;html=1;fontSize=20;fillColor=#F0A30A;glass=0;sketch=0;fontColor=#ffffff;fontFamily=Lucida Console;strokeColor=#FFFFFF;" parent="1" vertex="1">
          <mxGeometry x="247.5" y="1450" width="297" height="30" as="geometry" />
        </mxCell>
        <mxCell id="iFBfvALlvyKdv1rGwnyk-334" value="BT&lt;br&gt;&lt;span style=&quot;background-color: rgb(64, 64, 64);&quot;&gt;CLR&lt;/span&gt;" style="rounded=1;whiteSpace=wrap;html=1;fontSize=14;fillColor=#404040;fontFamily=Tahoma;fontColor=#FAFAFA;" parent="1" vertex="1">
          <mxGeometry x="317.5" y="1620" width="40" height="40" as="geometry" />
        </mxCell>
        <mxCell id="iFBfvALlvyKdv1rGwnyk-335" value="" style="rounded=1;whiteSpace=wrap;html=1;fontSize=15;fillColor=#404040;fontFamily=Tahoma;fontColor=#FAFAFA;" parent="1" vertex="1">
          <mxGeometry x="237.5" y="1520" width="40" height="40" as="geometry" />
        </mxCell>
        <mxCell id="iFBfvALlvyKdv1rGwnyk-336" value="" style="rounded=1;whiteSpace=wrap;html=1;fontSize=15;fillColor=#404040;fontFamily=Tahoma;fontColor=#FAFAFA;" parent="1" vertex="1">
          <mxGeometry x="277.5" y="1530" width="40" height="40" as="geometry" />
        </mxCell>
        <mxCell id="iFBfvALlvyKdv1rGwnyk-337" value="" style="rounded=1;whiteSpace=wrap;html=1;fontSize=10;fillColor=#404040;fontFamily=Tahoma;fontColor=#FAFAFA;" parent="1" vertex="1">
          <mxGeometry x="317.5" y="1540" width="40" height="40" as="geometry" />
        </mxCell>
        <mxCell id="iFBfvALlvyKdv1rGwnyk-338" value="" style="rounded=1;whiteSpace=wrap;html=1;fontSize=13;fillColor=#404040;fontFamily=Tahoma;fontColor=#FAFAFA;" parent="1" vertex="1">
          <mxGeometry x="277.5" y="1570" width="40" height="40" as="geometry" />
        </mxCell>
        <mxCell id="iFBfvALlvyKdv1rGwnyk-339" value="USB" style="rounded=1;whiteSpace=wrap;html=1;fontSize=14;fillColor=#404040;fontFamily=Tahoma;fontColor=#FAFAFA;" parent="1" vertex="1">
          <mxGeometry x="317.5" y="1580" width="40" height="40" as="geometry" />
        </mxCell>
        <mxCell id="iFBfvALlvyKdv1rGwnyk-340" value="Bootloader" style="rounded=1;whiteSpace=wrap;html=1;fontSize=8;fillColor=#404040;fontFamily=Tahoma;fontColor=#FAFAFA;rotation=-5;" parent="1" vertex="1">
          <mxGeometry x="190.5" y="1530" width="40" height="40" as="geometry" />
        </mxCell>
        <mxCell id="iFBfvALlvyKdv1rGwnyk-341" value="" style="rounded=1;whiteSpace=wrap;html=1;fontSize=14;fillColor=#404040;fontFamily=Tahoma;fontColor=#FAFAFA;" parent="1" vertex="1">
          <mxGeometry x="237.5" y="1560" width="40" height="40" as="geometry" />
        </mxCell>
        <mxCell id="iFBfvALlvyKdv1rGwnyk-342" value="" style="rounded=1;whiteSpace=wrap;html=1;fontSize=20;fillColor=#404040;fontFamily=Tahoma;fontColor=#FAFAFA;" parent="1" vertex="1">
          <mxGeometry x="277.5" y="1610" width="40" height="40" as="geometry" />
        </mxCell>
        <mxCell id="iFBfvALlvyKdv1rGwnyk-343" value="" style="rounded=1;whiteSpace=wrap;html=1;fontSize=20;fillColor=#404040;fontFamily=Tahoma;fontColor=#FAFAFA;" parent="1" vertex="1">
          <mxGeometry x="237.5" y="1600" width="40" height="40" as="geometry" />
        </mxCell>
        <mxCell id="iFBfvALlvyKdv1rGwnyk-344" value="" style="rounded=1;whiteSpace=wrap;html=1;fontSize=20;fillColor=#404040;fontFamily=Tahoma;fontColor=#FAFAFA;rotation=355;" parent="1" vertex="1">
          <mxGeometry x="196.5" y="1610" width="40" height="40" as="geometry" />
        </mxCell>
        <mxCell id="iFBfvALlvyKdv1rGwnyk-345" value="" style="rounded=1;whiteSpace=wrap;html=1;fontSize=14;fillColor=#404040;fontFamily=Tahoma;fontColor=#FAFAFA;rotation=345;" parent="1" vertex="1">
          <mxGeometry x="157.5" y="1640" width="40" height="40" as="geometry" />
        </mxCell>
        <mxCell id="iFBfvALlvyKdv1rGwnyk-346" value="Reset" style="rounded=1;whiteSpace=wrap;html=1;fontSize=12;fillColor=#404040;fontFamily=Tahoma;fontColor=#FAFAFA;rotation=345;" parent="1" vertex="1">
          <mxGeometry x="137.5" y="1562" width="40" height="40" as="geometry" />
        </mxCell>
        <mxCell id="iFBfvALlvyKdv1rGwnyk-347" value="" style="rounded=1;whiteSpace=wrap;html=1;fontSize=14;fillColor=#404040;fontFamily=Tahoma;fontColor=#FAFAFA;rotation=345;" parent="1" vertex="1">
          <mxGeometry x="147.5" y="1601" width="40" height="40" as="geometry" />
        </mxCell>
        <mxCell id="iFBfvALlvyKdv1rGwnyk-349" value="BT&lt;br style=&quot;font-size: 14px;&quot;&gt;2" style="rounded=1;whiteSpace=wrap;html=1;fontSize=14;fillColor=#404040;fontFamily=Tahoma;fontColor=#FAFAFA;rotation=5;flipV=0;flipH=0;direction=east;" parent="1" vertex="1">
          <mxGeometry x="562.5" y="1570" width="40" height="40" as="geometry" />
        </mxCell>
        <mxCell id="iFBfvALlvyKdv1rGwnyk-350" value="BT&lt;br style=&quot;font-size: 14px;&quot;&gt;&lt;span style=&quot;font-size: 14px; background-color: rgb(64, 64, 64);&quot;&gt;CLR&lt;/span&gt;" style="rounded=1;whiteSpace=wrap;html=1;fontSize=14;fillColor=#404040;fontFamily=Tahoma;fontColor=#FAFAFA;flipV=0;flipH=0;direction=east;" parent="1" vertex="1">
          <mxGeometry x="437.5" y="1620" width="40" height="40" as="geometry" />
        </mxCell>
        <mxCell id="iFBfvALlvyKdv1rGwnyk-351" value="Num&lt;br&gt;Lock" style="rounded=1;whiteSpace=wrap;html=1;fontSize=13;fillColor=#404040;fontFamily=Tahoma;fontColor=#FAFAFA;flipV=0;flipH=0;direction=east;" parent="1" vertex="1">
          <mxGeometry x="517.5" y="1520" width="40" height="40" as="geometry" />
        </mxCell>
        <mxCell id="iFBfvALlvyKdv1rGwnyk-352" value="" style="rounded=1;whiteSpace=wrap;html=1;fontSize=12;fillColor=#404040;fontFamily=Tahoma;fontColor=#FAFAFA;flipV=0;flipH=0;direction=east;" parent="1" vertex="1">
          <mxGeometry x="477.5" y="1530" width="40" height="40" as="geometry" />
        </mxCell>
        <mxCell id="iFBfvALlvyKdv1rGwnyk-353" value="" style="rounded=1;whiteSpace=wrap;html=1;fontSize=10;fillColor=#404040;fontFamily=Tahoma;fontColor=#FAFAFA;flipV=0;flipH=0;direction=east;" parent="1" vertex="1">
          <mxGeometry x="437.5" y="1540" width="40" height="40" as="geometry" />
        </mxCell>
        <mxCell id="iFBfvALlvyKdv1rGwnyk-354" value="BT&lt;br style=&quot;font-size: 14px;&quot;&gt;0" style="rounded=1;whiteSpace=wrap;html=1;fontSize=14;fillColor=#404040;fontFamily=Tahoma;fontColor=#FAFAFA;flipV=0;flipH=0;direction=east;" parent="1" vertex="1">
          <mxGeometry x="477.5" y="1570" width="40" height="40" as="geometry" />
        </mxCell>
        <mxCell id="iFBfvALlvyKdv1rGwnyk-355" value="BLE" style="rounded=1;whiteSpace=wrap;html=1;fontSize=14;fillColor=#404040;fontFamily=Tahoma;fontColor=#FAFAFA;flipV=0;flipH=0;direction=east;" parent="1" vertex="1">
          <mxGeometry x="437.5" y="1580" width="40" height="40" as="geometry" />
        </mxCell>
        <mxCell id="iFBfvALlvyKdv1rGwnyk-356" value="Bootloader" style="rounded=1;whiteSpace=wrap;html=1;fontSize=8;fillColor=#404040;fontFamily=Tahoma;fontColor=#FAFAFA;rotation=5;flipV=0;flipH=0;direction=east;" parent="1" vertex="1">
          <mxGeometry x="566.5" y="1530" width="40" height="40" as="geometry" />
        </mxCell>
        <mxCell id="iFBfvALlvyKdv1rGwnyk-357" value="BT&lt;br style=&quot;font-size: 14px;&quot;&gt;1" style="rounded=1;whiteSpace=wrap;html=1;fontSize=14;fillColor=#404040;fontFamily=Tahoma;fontColor=#FAFAFA;flipV=0;flipH=0;direction=east;" parent="1" vertex="1">
          <mxGeometry x="517.5" y="1560" width="40" height="40" as="geometry" />
        </mxCell>
        <mxCell id="iFBfvALlvyKdv1rGwnyk-358" value="" style="rounded=1;whiteSpace=wrap;html=1;fontSize=12;fontFamily=Tahoma;flipV=0;flipH=0;direction=east;fillColor=#404040;" parent="1" vertex="1">
          <mxGeometry x="477.5" y="1610" width="40" height="40" as="geometry" />
        </mxCell>
        <mxCell id="iFBfvALlvyKdv1rGwnyk-359" value="" style="rounded=1;whiteSpace=wrap;html=1;fontSize=12;fontFamily=Tahoma;flipV=0;flipH=0;direction=east;fillColor=#404040;" parent="1" vertex="1">
          <mxGeometry x="517.5" y="1600" width="40" height="40" as="geometry" />
        </mxCell>
        <mxCell id="iFBfvALlvyKdv1rGwnyk-360" value="BT&lt;br style=&quot;font-size: 14px;&quot;&gt;5" style="rounded=1;whiteSpace=wrap;html=1;fontSize=14;fillColor=#404040;fontFamily=Tahoma;fontColor=#FAFAFA;rotation=5;flipV=0;flipH=0;direction=east;" parent="1" vertex="1">
          <mxGeometry x="558.5" y="1610" width="40" height="40" as="geometry" />
        </mxCell>
        <mxCell id="iFBfvALlvyKdv1rGwnyk-361" value="BT&lt;br style=&quot;font-size: 14px;&quot;&gt;4" style="rounded=1;whiteSpace=wrap;html=1;fontSize=14;fillColor=#404040;fontFamily=Tahoma;fontColor=#FAFAFA;rotation=15;flipV=0;flipH=0;direction=east;" parent="1" vertex="1">
          <mxGeometry x="597.5" y="1630" width="40" height="40" as="geometry" />
        </mxCell>
        <mxCell id="iFBfvALlvyKdv1rGwnyk-362" value="Reset" style="rounded=1;whiteSpace=wrap;html=1;fontSize=12;fillColor=#404040;fontFamily=Tahoma;fontColor=#FAFAFA;rotation=15;flipV=0;flipH=0;direction=east;" parent="1" vertex="1">
          <mxGeometry x="619.5" y="1552" width="40" height="40" as="geometry" />
        </mxCell>
        <mxCell id="iFBfvALlvyKdv1rGwnyk-363" value="BT&lt;br style=&quot;font-size: 14px;&quot;&gt;3" style="rounded=1;whiteSpace=wrap;html=1;fontSize=14;fillColor=#404040;fontFamily=Tahoma;fontColor=#FAFAFA;rotation=15;flipV=0;flipH=0;direction=east;" parent="1" vertex="1">
          <mxGeometry x="608.5" y="1591" width="40" height="40" as="geometry" />
        </mxCell>
        <mxCell id="iFBfvALlvyKdv1rGwnyk-364" value="" style="rounded=1;whiteSpace=wrap;html=1;fontSize=20;fillColor=#404040;fontFamily=Tahoma;fontColor=#FAFAFA;rotation=345;flipV=0;flipH=0;direction=east;" parent="1" vertex="1">
          <mxGeometry x="457.5" y="1670" width="40" height="40" as="geometry" />
        </mxCell>
        <mxCell id="iFBfvALlvyKdv1rGwnyk-365" value="S" style="rounded=1;whiteSpace=wrap;html=1;fontSize=20;fillColor=#404040;fontFamily=Tahoma;fontColor=#FAFAFA;rotation=355;" parent="1" vertex="1">
          <mxGeometry x="216" y="2920" width="40" height="40" as="geometry" />
        </mxCell>
        <mxCell id="iFBfvALlvyKdv1rGwnyk-366" value="Qwerty" style="rounded=0;whiteSpace=wrap;html=1;fontSize=20;glass=0;sketch=0;fontFamily=Lucida Console;" parent="1" vertex="1">
          <mxGeometry x="270" y="2800" width="297" height="30" as="geometry" />
        </mxCell>
        <mxCell id="iFBfvALlvyKdv1rGwnyk-367" value="B" style="rounded=1;whiteSpace=wrap;html=1;fontSize=20;fillColor=#404040;fontFamily=Tahoma;fontColor=#FAFAFA;" parent="1" vertex="1">
          <mxGeometry x="340" y="2970" width="40" height="40" as="geometry" />
        </mxCell>
        <mxCell id="iFBfvALlvyKdv1rGwnyk-368" value="E" style="rounded=1;whiteSpace=wrap;html=1;fontSize=20;fillColor=#404040;fontFamily=Tahoma;fontColor=#FAFAFA;" parent="1" vertex="1">
          <mxGeometry x="260" y="2870" width="40" height="40" as="geometry" />
        </mxCell>
        <mxCell id="iFBfvALlvyKdv1rGwnyk-369" value="R" style="rounded=1;whiteSpace=wrap;html=1;fontSize=20;fillColor=#404040;fontFamily=Tahoma;fontColor=#FAFAFA;" parent="1" vertex="1">
          <mxGeometry x="300" y="2880" width="40" height="40" as="geometry" />
        </mxCell>
        <mxCell id="iFBfvALlvyKdv1rGwnyk-370" value="T" style="rounded=1;whiteSpace=wrap;html=1;fontSize=20;fillColor=#404040;fontFamily=Tahoma;fontColor=#FAFAFA;" parent="1" vertex="1">
          <mxGeometry x="340" y="2890" width="40" height="40" as="geometry" />
        </mxCell>
        <mxCell id="iFBfvALlvyKdv1rGwnyk-371" value="F" style="rounded=1;whiteSpace=wrap;html=1;fontSize=20;fillColor=#404040;fontFamily=Tahoma;fontColor=#FAFAFA;" parent="1" vertex="1">
          <mxGeometry x="300" y="2920" width="40" height="40" as="geometry" />
        </mxCell>
        <mxCell id="iFBfvALlvyKdv1rGwnyk-372" value="G" style="rounded=1;whiteSpace=wrap;html=1;fontSize=20;fillColor=#404040;fontFamily=Tahoma;fontColor=#FAFAFA;" parent="1" vertex="1">
          <mxGeometry x="340" y="2930" width="40" height="40" as="geometry" />
        </mxCell>
        <mxCell id="iFBfvALlvyKdv1rGwnyk-373" value="W" style="rounded=1;whiteSpace=wrap;html=1;fontSize=20;fillColor=#404040;fontFamily=Tahoma;fontColor=#FAFAFA;rotation=-5;" parent="1" vertex="1">
          <mxGeometry x="213" y="2880" width="40" height="40" as="geometry" />
        </mxCell>
        <mxCell id="iFBfvALlvyKdv1rGwnyk-374" value="D" style="rounded=1;whiteSpace=wrap;html=1;fontSize=20;fillColor=#404040;fontFamily=Tahoma;fontColor=#FAFAFA;" parent="1" vertex="1">
          <mxGeometry x="260" y="2910" width="40" height="40" as="geometry" />
        </mxCell>
        <mxCell id="iFBfvALlvyKdv1rGwnyk-375" value="V" style="rounded=1;whiteSpace=wrap;html=1;fontSize=20;fillColor=#404040;fontFamily=Tahoma;fontColor=#FAFAFA;" parent="1" vertex="1">
          <mxGeometry x="300" y="2960" width="40" height="40" as="geometry" />
        </mxCell>
        <mxCell id="iFBfvALlvyKdv1rGwnyk-376" value="C" style="rounded=1;whiteSpace=wrap;html=1;fontSize=20;fillColor=#404040;fontFamily=Tahoma;fontColor=#FAFAFA;" parent="1" vertex="1">
          <mxGeometry x="260" y="2950" width="40" height="40" as="geometry" />
        </mxCell>
        <mxCell id="iFBfvALlvyKdv1rGwnyk-377" value="X" style="rounded=1;whiteSpace=wrap;html=1;fontSize=20;fillColor=#404040;fontFamily=Tahoma;fontColor=#FAFAFA;rotation=355;" parent="1" vertex="1">
          <mxGeometry x="219" y="2960" width="40" height="40" as="geometry" />
        </mxCell>
        <mxCell id="iFBfvALlvyKdv1rGwnyk-378" value="Z" style="rounded=1;whiteSpace=wrap;html=1;fontSize=20;fillColor=#404040;fontFamily=Tahoma;fontColor=#FAFAFA;rotation=345;" parent="1" vertex="1">
          <mxGeometry x="180" y="2990" width="40" height="40" as="geometry" />
        </mxCell>
        <mxCell id="iFBfvALlvyKdv1rGwnyk-379" value="Q" style="rounded=1;whiteSpace=wrap;html=1;fontSize=20;fillColor=#404040;fontFamily=Tahoma;fontColor=#FAFAFA;rotation=345;" parent="1" vertex="1">
          <mxGeometry x="160" y="2912" width="40" height="40" as="geometry" />
        </mxCell>
        <mxCell id="iFBfvALlvyKdv1rGwnyk-380" value="A" style="rounded=1;whiteSpace=wrap;html=1;fontSize=20;fillColor=#404040;fontFamily=Tahoma;fontColor=#FAFAFA;rotation=345;" parent="1" vertex="1">
          <mxGeometry x="170" y="2951" width="40" height="40" as="geometry" />
        </mxCell>
        <mxCell id="qrAL6lpQKtqpKqfxFsyo-2" style="edgeStyle=orthogonalEdgeStyle;rounded=0;orthogonalLoop=1;jettySize=auto;html=1;fontSize=20;entryX=0.5;entryY=0;entryDx=0;entryDy=0;" parent="1" target="qrAL6lpQKtqpKqfxFsyo-5" edge="1">
          <mxGeometry relative="1" as="geometry">
            <mxPoint x="417.5" y="3100" as="targetPoint" />
            <mxPoint x="360.7055236082017" y="3040" as="sourcePoint" />
          </mxGeometry>
        </mxCell>
        <mxCell id="iFBfvALlvyKdv1rGwnyk-382" value="L" style="rounded=1;whiteSpace=wrap;html=1;fontSize=20;fillColor=#404040;fontFamily=Tahoma;fontColor=#FAFAFA;rotation=5;flipV=0;flipH=0;direction=east;" parent="1" vertex="1">
          <mxGeometry x="585" y="2920" width="40" height="40" as="geometry" />
        </mxCell>
        <mxCell id="iFBfvALlvyKdv1rGwnyk-383" value="M" style="rounded=1;whiteSpace=wrap;html=1;fontSize=20;fillColor=#404040;fontFamily=Tahoma;fontColor=#FAFAFA;flipV=0;flipH=0;direction=east;" parent="1" vertex="1">
          <mxGeometry x="460" y="2970" width="40" height="40" as="geometry" />
        </mxCell>
        <mxCell id="iFBfvALlvyKdv1rGwnyk-384" value="I" style="rounded=1;whiteSpace=wrap;html=1;fontSize=20;fillColor=#404040;fontFamily=Tahoma;fontColor=#FAFAFA;flipV=0;flipH=0;direction=east;" parent="1" vertex="1">
          <mxGeometry x="540" y="2870" width="40" height="40" as="geometry" />
        </mxCell>
        <mxCell id="iFBfvALlvyKdv1rGwnyk-385" value="U" style="rounded=1;whiteSpace=wrap;html=1;fontSize=20;fillColor=#404040;fontFamily=Tahoma;fontColor=#FAFAFA;flipV=0;flipH=0;direction=east;" parent="1" vertex="1">
          <mxGeometry x="500" y="2880" width="40" height="40" as="geometry" />
        </mxCell>
        <mxCell id="iFBfvALlvyKdv1rGwnyk-386" value="Y" style="rounded=1;whiteSpace=wrap;html=1;fontSize=20;fillColor=#404040;fontFamily=Tahoma;fontColor=#FAFAFA;flipV=0;flipH=0;direction=east;" parent="1" vertex="1">
          <mxGeometry x="460" y="2890" width="40" height="40" as="geometry" />
        </mxCell>
        <mxCell id="iFBfvALlvyKdv1rGwnyk-387" value="J" style="rounded=1;whiteSpace=wrap;html=1;fontSize=20;fillColor=#404040;fontFamily=Tahoma;fontColor=#FAFAFA;flipV=0;flipH=0;direction=east;" parent="1" vertex="1">
          <mxGeometry x="500" y="2920" width="40" height="40" as="geometry" />
        </mxCell>
        <mxCell id="iFBfvALlvyKdv1rGwnyk-388" value="H" style="rounded=1;whiteSpace=wrap;html=1;fontSize=20;fillColor=#404040;fontFamily=Tahoma;fontColor=#FAFAFA;flipV=0;flipH=0;direction=east;" parent="1" vertex="1">
          <mxGeometry x="460" y="2930" width="40" height="40" as="geometry" />
        </mxCell>
        <mxCell id="iFBfvALlvyKdv1rGwnyk-389" value="O" style="rounded=1;whiteSpace=wrap;html=1;fontSize=20;fillColor=#404040;fontFamily=Tahoma;fontColor=#FAFAFA;rotation=5;flipV=0;flipH=0;direction=east;" parent="1" vertex="1">
          <mxGeometry x="589" y="2880" width="40" height="40" as="geometry" />
        </mxCell>
        <mxCell id="iFBfvALlvyKdv1rGwnyk-390" value="K" style="rounded=1;whiteSpace=wrap;html=1;fontSize=20;fillColor=#404040;fontFamily=Tahoma;fontColor=#FAFAFA;flipV=0;flipH=0;direction=east;" parent="1" vertex="1">
          <mxGeometry x="540" y="2910" width="40" height="40" as="geometry" />
        </mxCell>
        <mxCell id="iFBfvALlvyKdv1rGwnyk-391" value="N" style="rounded=1;whiteSpace=wrap;html=1;fontSize=20;fillColor=#404040;fontFamily=Tahoma;fontColor=#FAFAFA;flipV=0;flipH=0;direction=east;" parent="1" vertex="1">
          <mxGeometry x="500" y="2960" width="40" height="40" as="geometry" />
        </mxCell>
        <mxCell id="iFBfvALlvyKdv1rGwnyk-392" value="," style="rounded=1;whiteSpace=wrap;html=1;fontSize=20;fillColor=#404040;fontFamily=Tahoma;fontColor=#FAFAFA;flipV=0;flipH=0;direction=east;" parent="1" vertex="1">
          <mxGeometry x="540" y="2950" width="40" height="40" as="geometry" />
        </mxCell>
        <mxCell id="iFBfvALlvyKdv1rGwnyk-393" value="." style="rounded=1;whiteSpace=wrap;html=1;fontSize=20;fillColor=#404040;fontFamily=Tahoma;fontColor=#FAFAFA;rotation=5;flipV=0;flipH=0;direction=east;" parent="1" vertex="1">
          <mxGeometry x="581" y="2960" width="40" height="40" as="geometry" />
        </mxCell>
        <mxCell id="iFBfvALlvyKdv1rGwnyk-394" value="-&lt;br style=&quot;font-size: 14px;&quot;&gt;Shift" style="rounded=1;whiteSpace=wrap;html=1;fontSize=14;fillColor=#404040;fontFamily=Tahoma;fontColor=#FAFAFA;rotation=15;flipV=0;flipH=0;direction=east;" parent="1" vertex="1">
          <mxGeometry x="620" y="2980" width="40" height="40" as="geometry" />
        </mxCell>
        <mxCell id="iFBfvALlvyKdv1rGwnyk-395" value="P" style="rounded=1;whiteSpace=wrap;html=1;fontSize=20;fillColor=#404040;fontFamily=Tahoma;fontColor=#FAFAFA;rotation=15;flipV=0;flipH=0;direction=east;" parent="1" vertex="1">
          <mxGeometry x="642" y="2902" width="40" height="40" as="geometry" />
        </mxCell>
        <mxCell id="iFBfvALlvyKdv1rGwnyk-396" value="&lt;span style=&quot;color: rgb(250, 250, 250); font-family: &amp;quot;segoe ui emoji&amp;quot;, &amp;quot;apple color emoji&amp;quot;, &amp;quot;noto color emoji&amp;quot;; font-size: 16px; font-style: normal; font-variant-ligatures: normal; font-variant-caps: normal; font-weight: 400; letter-spacing: normal; orphans: 2; text-align: center; text-indent: 0px; text-transform: none; widows: 2; word-spacing: 0px; -webkit-text-stroke-width: 0px; background-color: rgb(64, 64, 64); text-decoration-thickness: initial; text-decoration-style: initial; text-decoration-color: initial; float: none; display: inline !important;&quot;&gt;⌫&lt;/span&gt;" style="rounded=1;whiteSpace=wrap;html=1;fontSize=20;fillColor=#404040;fontFamily=Tahoma;fontColor=#FAFAFA;rotation=15;flipV=0;flipH=0;direction=east;" parent="1" vertex="1">
          <mxGeometry x="631" y="2941" width="40" height="40" as="geometry" />
        </mxCell>
        <mxCell id="qrAL6lpQKtqpKqfxFsyo-3" style="edgeStyle=orthogonalEdgeStyle;orthogonalLoop=1;jettySize=auto;html=1;fontSize=20;entryX=0.5;entryY=0;entryDx=0;entryDy=0;rounded=0;" parent="1" source="iFBfvALlvyKdv1rGwnyk-397" target="qrAL6lpQKtqpKqfxFsyo-5" edge="1">
          <mxGeometry relative="1" as="geometry">
            <mxPoint x="417.5" y="3100" as="targetPoint" />
            <Array as="points">
              <mxPoint x="418.5" y="3040" />
            </Array>
          </mxGeometry>
        </mxCell>
        <mxCell id="qrAL6lpQKtqpKqfxFsyo-4" value="Combo" style="edgeLabel;html=1;align=center;verticalAlign=middle;resizable=0;points=[];fontSize=16;" parent="qrAL6lpQKtqpKqfxFsyo-3" vertex="1" connectable="0">
          <mxGeometry x="0.4041" y="1" relative="1" as="geometry">
            <mxPoint as="offset" />
          </mxGeometry>
        </mxCell>
        <mxCell id="iFBfvALlvyKdv1rGwnyk-397" value="&lt;span style=&quot;font-family: &amp;quot;segoe ui emoji&amp;quot;, &amp;quot;apple color emoji&amp;quot;, &amp;quot;noto color emoji&amp;quot;; font-size: 20px;&quot;&gt;↵&lt;/span&gt;" style="rounded=1;whiteSpace=wrap;html=1;fontSize=20;fillColor=#404040;fontFamily=Tahoma;fontColor=#FAFAFA;rotation=345;flipV=0;flipH=0;direction=east;" parent="1" vertex="1">
          <mxGeometry x="480" y="3020" width="40" height="40" as="geometry" />
        </mxCell>
        <mxCell id="3XCX3ht7X6iRdQwdeacQ-5" style="edgeStyle=orthogonalEdgeStyle;rounded=1;orthogonalLoop=1;jettySize=auto;html=1;entryX=1;entryY=0.5;entryDx=0;entryDy=0;fontSize=20;strokeColor=#D80073;" parent="1" source="iFBfvALlvyKdv1rGwnyk-400" target="iFBfvALlvyKdv1rGwnyk-234" edge="1">
          <mxGeometry relative="1" as="geometry">
            <Array as="points">
              <mxPoint x="780" y="1095" />
            </Array>
          </mxGeometry>
        </mxCell>
        <mxCell id="iFBfvALlvyKdv1rGwnyk-400" value="Num&lt;br&gt;Fn" style="rounded=1;whiteSpace=wrap;html=1;fontSize=16;fillColor=#D80073;fontFamily=Tahoma;fontColor=#ffffff;flipV=0;flipH=0;direction=east;strokeColor=#A50040;" parent="1" vertex="1">
          <mxGeometry x="760" y="240" width="40" height="40" as="geometry" />
        </mxCell>
        <mxCell id="iFBfvALlvyKdv1rGwnyk-5" value="F" style="rounded=1;whiteSpace=wrap;html=1;fontSize=20;fillColor=#404040;fontFamily=Tahoma;fontColor=#FAFAFA;" parent="1" vertex="1">
          <mxGeometry x="240" y="60" width="40" height="40" as="geometry" />
        </mxCell>
        <mxCell id="iFBfvALlvyKdv1rGwnyk-6" value="P" style="rounded=1;whiteSpace=wrap;html=1;fontSize=20;fillColor=#404040;fontFamily=Tahoma;fontColor=#FAFAFA;" parent="1" vertex="1">
          <mxGeometry x="280" y="70" width="40" height="40" as="geometry" />
        </mxCell>
        <mxCell id="iFBfvALlvyKdv1rGwnyk-22" value="L" style="rounded=1;whiteSpace=wrap;html=1;fontSize=20;fillColor=#404040;fontFamily=Tahoma;fontColor=#FAFAFA;flipV=0;flipH=0;direction=east;" parent="1" vertex="1">
          <mxGeometry x="480" y="70" width="40" height="40" as="geometry" />
        </mxCell>
        <mxCell id="iFBfvALlvyKdv1rGwnyk-21" value="U" style="rounded=1;whiteSpace=wrap;html=1;fontSize=20;fillColor=#404040;fontFamily=Tahoma;flipV=0;flipH=0;direction=east;strokeColor=#FFFFFF;fontColor=#FFFFFF;" parent="1" vertex="1">
          <mxGeometry x="520" y="60" width="40" height="40" as="geometry" />
        </mxCell>
        <mxCell id="iFBfvALlvyKdv1rGwnyk-26" value="Y" style="rounded=1;whiteSpace=wrap;html=1;fontSize=20;fillColor=#404040;fontFamily=Tahoma;fontColor=#FAFAFA;rotation=5;flipV=0;flipH=0;direction=east;" parent="1" vertex="1">
          <mxGeometry x="569" y="70" width="40" height="40" as="geometry" />
        </mxCell>
        <mxCell id="qrAL6lpQKtqpKqfxFsyo-5" value="Base" style="rounded=0;whiteSpace=wrap;html=1;fontSize=20;glass=0;sketch=0;fontFamily=Lucida Console;fillColor=#4D4D4D;gradientColor=none;fontColor=#FFFFFF;" parent="1" vertex="1">
          <mxGeometry x="368.5" y="3160" width="100" height="30" as="geometry" />
        </mxCell>
        <mxCell id="sqq5_xpIMkr8mD9ZzL_n-1" value="" style="rounded=1;whiteSpace=wrap;html=1;fontSize=20;fillColor=#404040;fontFamily=Tahoma;fontColor=#FAFAFA;rotation=15;" parent="1" vertex="1">
          <mxGeometry x="335" y="1320" width="40" height="40" as="geometry" />
        </mxCell>
        <mxCell id="sqq5_xpIMkr8mD9ZzL_n-3" value="" style="rounded=1;whiteSpace=wrap;html=1;fontSize=20;fillColor=#60a917;fontFamily=Tahoma;fontColor=#ffffff;rotation=15;strokeColor=#FFFFFF;" parent="1" vertex="1">
          <mxGeometry x="282.5" y="930" width="40" height="40" as="geometry" />
        </mxCell>
        <mxCell id="sqq5_xpIMkr8mD9ZzL_n-4" value="" style="rounded=1;whiteSpace=wrap;html=1;fontSize=20;fillColor=#404040;fontFamily=Tahoma;fontColor=#FAFAFA;rotation=15;" parent="1" vertex="1">
          <mxGeometry x="320" y="950" width="40" height="40" as="geometry" />
        </mxCell>
        <mxCell id="sqq5_xpIMkr8mD9ZzL_n-5" value="" style="rounded=1;whiteSpace=wrap;html=1;fontSize=20;fillColor=#404040;fontFamily=Tahoma;fontColor=#FAFAFA;rotation=15;" parent="1" vertex="1">
          <mxGeometry x="282.5" y="580" width="40" height="40" as="geometry" />
        </mxCell>
        <mxCell id="sqq5_xpIMkr8mD9ZzL_n-6" value="" style="rounded=1;whiteSpace=wrap;html=1;fontSize=20;fillColor=#404040;fontFamily=Tahoma;fontColor=#FAFAFA;rotation=15;" parent="1" vertex="1">
          <mxGeometry x="320" y="600" width="40" height="40" as="geometry" />
        </mxCell>
        <mxCell id="kN11E63hpgjukxllPcyO-37" style="edgeStyle=orthogonalEdgeStyle;rounded=1;orthogonalLoop=1;jettySize=auto;html=1;fontSize=20;fillColor=#e51400;strokeColor=#B20000;entryX=0;entryY=0.5;entryDx=0;entryDy=0;" parent="1" source="sqq5_xpIMkr8mD9ZzL_n-8" target="kN11E63hpgjukxllPcyO-2" edge="1">
          <mxGeometry relative="1" as="geometry">
            <mxPoint x="290" y="2730" as="targetPoint" />
            <Array as="points">
              <mxPoint x="40" y="250" />
              <mxPoint x="40" y="1855" />
            </Array>
          </mxGeometry>
        </mxCell>
        <mxCell id="Bwkxw14er_QYUHpWonbk-37" style="edgeStyle=orthogonalEdgeStyle;rounded=0;orthogonalLoop=1;jettySize=auto;html=1;entryX=0;entryY=0.5;entryDx=0;entryDy=0;fillColor=#6a00ff;strokeColor=#3700CC;" parent="1" source="sqq5_xpIMkr8mD9ZzL_n-8" target="Bwkxw14er_QYUHpWonbk-1" edge="1">
          <mxGeometry relative="1" as="geometry">
            <mxPoint x="110" y="410" as="targetPoint" />
            <Array as="points">
              <mxPoint x="355" y="320" />
              <mxPoint x="110" y="320" />
              <mxPoint x="110" y="2255" />
            </Array>
          </mxGeometry>
        </mxCell>
        <mxCell id="sqq5_xpIMkr8mD9ZzL_n-8" value="Media&lt;br style=&quot;font-size: 10px;&quot;&gt;Numpad" style="rounded=1;whiteSpace=wrap;html=1;fontSize=10;fillColor=#e51400;fontFamily=Tahoma;rotation=15;strokeColor=#FFFFFF;fontStyle=1;fontColor=#ffffff;" parent="1" vertex="1">
          <mxGeometry x="335" y="230" width="40" height="40" as="geometry" />
        </mxCell>
        <mxCell id="sqq5_xpIMkr8mD9ZzL_n-9" value="&lt;span style=&quot;font-family: &amp;quot;segoe ui emoji&amp;quot;, &amp;quot;apple color emoji&amp;quot;, &amp;quot;noto color emoji&amp;quot;; font-size: 23px;&quot;&gt;↵&lt;/span&gt;" style="rounded=1;whiteSpace=wrap;html=1;fontSize=23;fillColor=#60a917;fontFamily=Tahoma;fontColor=#ffffff;rotation=15;strokeColor=#FFFFFF;" parent="1" vertex="1">
          <mxGeometry x="297.5" y="210" width="40" height="40" as="geometry" />
        </mxCell>
        <mxCell id="sqq5_xpIMkr8mD9ZzL_n-10" value="" style="rounded=1;whiteSpace=wrap;html=1;fontSize=20;fillColor=#404040;fontFamily=Tahoma;fontColor=#FAFAFA;rotation=15;" parent="1" vertex="1">
          <mxGeometry x="290" y="1670" width="40" height="40" as="geometry" />
        </mxCell>
        <mxCell id="sqq5_xpIMkr8mD9ZzL_n-11" value="" style="rounded=1;whiteSpace=wrap;html=1;fontSize=20;fillColor=#404040;fontFamily=Tahoma;fontColor=#FAFAFA;rotation=15;" parent="1" vertex="1">
          <mxGeometry x="327.5" y="1690" width="40" height="40" as="geometry" />
        </mxCell>
        <mxCell id="sqq5_xpIMkr8mD9ZzL_n-12" value="Space" style="rounded=1;whiteSpace=wrap;html=1;fontSize=14;fillColor=#404040;fontFamily=Tahoma;fontColor=#FAFAFA;rotation=15;" parent="1" vertex="1">
          <mxGeometry x="318.75" y="3020" width="40" height="40" as="geometry" />
        </mxCell>
        <mxCell id="qkZUyMEDpivcv36ifS3U-1" style="edgeStyle=orthogonalEdgeStyle;rounded=1;orthogonalLoop=1;jettySize=auto;html=1;fontSize=17;" parent="1" source="sqq5_xpIMkr8mD9ZzL_n-13" target="qrAL6lpQKtqpKqfxFsyo-5" edge="1">
          <mxGeometry relative="1" as="geometry">
            <Array as="points">
              <mxPoint x="376.5" y="3122" />
              <mxPoint x="392.5" y="3122" />
            </Array>
          </mxGeometry>
        </mxCell>
        <mxCell id="sqq5_xpIMkr8mD9ZzL_n-13" value="Base" style="rounded=1;whiteSpace=wrap;html=1;fontSize=17;fillColor=#404040;fontFamily=Tahoma;fontColor=#FAFAFA;rotation=15;" parent="1" vertex="1">
          <mxGeometry x="356.25" y="3040" width="40" height="40" as="geometry" />
        </mxCell>
        <mxCell id="sqq5_xpIMkr8mD9ZzL_n-14" value="" style="rounded=1;whiteSpace=wrap;html=1;fontSize=20;fillColor=#f0a30a;fontFamily=Tahoma;fontColor=#000000;rotation=345;flipV=0;flipH=0;direction=east;strokeColor=#FFFFFF;" parent="1" vertex="1">
          <mxGeometry x="420" y="1690" width="40" height="40" as="geometry" />
        </mxCell>
        <mxCell id="Bwkxw14er_QYUHpWonbk-41" style="edgeStyle=orthogonalEdgeStyle;rounded=0;orthogonalLoop=1;jettySize=auto;html=1;entryX=0.75;entryY=0;entryDx=0;entryDy=0;" parent="1" source="sqq5_xpIMkr8mD9ZzL_n-15" target="qrAL6lpQKtqpKqfxFsyo-5" edge="1">
          <mxGeometry relative="1" as="geometry" />
        </mxCell>
        <mxCell id="sqq5_xpIMkr8mD9ZzL_n-15" value="" style="rounded=1;whiteSpace=wrap;html=1;fontSize=20;fillColor=#404040;fontFamily=Tahoma;fontColor=#FAFAFA;rotation=345;flipV=0;flipH=0;direction=east;" parent="1" vertex="1">
          <mxGeometry x="442.5" y="3040" width="40" height="40" as="geometry" />
        </mxCell>
        <mxCell id="sqq5_xpIMkr8mD9ZzL_n-16" value="" style="rounded=1;whiteSpace=wrap;html=1;fontSize=17;fillColor=#404040;fontFamily=Tahoma;fontColor=#FAFAFA;rotation=345;flipV=0;flipH=0;direction=east;" parent="1" vertex="1">
          <mxGeometry x="417.5" y="1320" width="40" height="40" as="geometry" />
        </mxCell>
        <mxCell id="sqq5_xpIMkr8mD9ZzL_n-17" value="" style="rounded=1;whiteSpace=wrap;html=1;fontSize=20;fillColor=#404040;fontFamily=Tahoma;fontColor=#FAFAFA;rotation=345;flipV=0;flipH=0;direction=east;" parent="1" vertex="1">
          <mxGeometry x="420" y="600" width="40" height="40" as="geometry" />
        </mxCell>
        <mxCell id="sqq5_xpIMkr8mD9ZzL_n-86" style="edgeStyle=orthogonalEdgeStyle;orthogonalLoop=1;jettySize=auto;html=1;entryX=1;entryY=0.5;entryDx=0;entryDy=0;fontSize=17;fontColor=#FFFFFF;fillColor=#ffcc99;strokeColor=#F0A30A;rounded=1;" parent="1" source="sqq5_xpIMkr8mD9ZzL_n-18" target="iFBfvALlvyKdv1rGwnyk-333" edge="1">
          <mxGeometry relative="1" as="geometry">
            <Array as="points">
              <mxPoint x="440" y="290" />
              <mxPoint x="800" y="290" />
              <mxPoint x="800" y="1465" />
            </Array>
          </mxGeometry>
        </mxCell>
        <mxCell id="Bwkxw14er_QYUHpWonbk-39" style="edgeStyle=orthogonalEdgeStyle;rounded=0;orthogonalLoop=1;jettySize=auto;html=1;fillColor=#6a00ff;strokeColor=#3700CC;entryX=1;entryY=0.5;entryDx=0;entryDy=0;" parent="1" source="sqq5_xpIMkr8mD9ZzL_n-18" edge="1" target="20JzUD5Fwz85h2eqfHul-4">
          <mxGeometry relative="1" as="geometry">
            <mxPoint x="360" y="320" as="targetPoint" />
            <Array as="points">
              <mxPoint x="440" y="320" />
            </Array>
          </mxGeometry>
        </mxCell>
        <mxCell id="sqq5_xpIMkr8mD9ZzL_n-18" value="Key" style="rounded=1;whiteSpace=wrap;html=1;fontSize=16;fillColor=#F0A30A;fontFamily=Tahoma;fontColor=#FAFAFA;rotation=345;flipV=0;flipH=0;direction=east;strokeColor=#FFFFFF;" parent="1" vertex="1">
          <mxGeometry x="420" y="230" width="40" height="40" as="geometry" />
        </mxCell>
        <mxCell id="sqq5_xpIMkr8mD9ZzL_n-19" value="" style="rounded=1;whiteSpace=wrap;html=1;fontSize=20;fillColor=#404040;fontFamily=Tahoma;fontColor=#FAFAFA;rotation=345;flipV=0;flipH=0;direction=east;" parent="1" vertex="1">
          <mxGeometry x="417.5" y="950" width="40" height="40" as="geometry" />
        </mxCell>
        <mxCell id="sqq5_xpIMkr8mD9ZzL_n-20" value="tap&lt;br style=&quot;font-size: 16px;&quot;&gt;dance" style="rounded=1;whiteSpace=wrap;html=1;fontSize=16;fillColor=#666666;fontFamily=Tahoma;flipV=0;flipH=0;direction=east;strokeColor=#FFFFFF;fontColor=#ffffff;" parent="1" vertex="1">
          <mxGeometry x="730" y="-40" width="40" height="40" as="geometry" />
        </mxCell>
        <mxCell id="sqq5_xpIMkr8mD9ZzL_n-21" value="A" style="rounded=1;whiteSpace=wrap;html=1;fontSize=20;fillColor=#404040;fontFamily=Tahoma;fontColor=#FAFAFA;rotation=355;" parent="1" vertex="1">
          <mxGeometry x="218.5048974278318" y="3390" width="40" height="40" as="geometry" />
        </mxCell>
        <mxCell id="sqq5_xpIMkr8mD9ZzL_n-22" value="Gaming" style="rounded=0;whiteSpace=wrap;html=1;fontSize=20;glass=0;sketch=0;fontFamily=Lucida Console;fillColor=#cce5ff;strokeColor=#FFFFFF;fontColor=#000000;" parent="1" vertex="1">
          <mxGeometry x="272.5048974278318" y="3270" width="297" height="30" as="geometry" />
        </mxCell>
        <mxCell id="sqq5_xpIMkr8mD9ZzL_n-23" value="V" style="rounded=1;whiteSpace=wrap;html=1;fontSize=20;fillColor=#404040;fontFamily=Tahoma;fontColor=#FAFAFA;" parent="1" vertex="1">
          <mxGeometry x="342.5048974278318" y="3440" width="40" height="40" as="geometry" />
        </mxCell>
        <mxCell id="sqq5_xpIMkr8mD9ZzL_n-24" value="W" style="rounded=1;whiteSpace=wrap;html=1;fontSize=20;fillColor=#404040;fontFamily=Tahoma;fontColor=#FAFAFA;" parent="1" vertex="1">
          <mxGeometry x="262.5048974278318" y="3340" width="40" height="40" as="geometry" />
        </mxCell>
        <mxCell id="sqq5_xpIMkr8mD9ZzL_n-25" value="E" style="rounded=1;whiteSpace=wrap;html=1;fontSize=20;fillColor=#404040;fontFamily=Tahoma;fontColor=#FAFAFA;" parent="1" vertex="1">
          <mxGeometry x="302.5048974278318" y="3350" width="40" height="40" as="geometry" />
        </mxCell>
        <mxCell id="sqq5_xpIMkr8mD9ZzL_n-26" value="R" style="rounded=1;whiteSpace=wrap;html=1;fontSize=20;fillColor=#404040;fontFamily=Tahoma;fontColor=#FAFAFA;" parent="1" vertex="1">
          <mxGeometry x="342.5048974278318" y="3360" width="40" height="40" as="geometry" />
        </mxCell>
        <mxCell id="sqq5_xpIMkr8mD9ZzL_n-27" value="D" style="rounded=1;whiteSpace=wrap;html=1;fontSize=20;fillColor=#404040;fontFamily=Tahoma;fontColor=#FAFAFA;" parent="1" vertex="1">
          <mxGeometry x="302.5048974278318" y="3390" width="40" height="40" as="geometry" />
        </mxCell>
        <mxCell id="sqq5_xpIMkr8mD9ZzL_n-28" value="F" style="rounded=1;whiteSpace=wrap;html=1;fontSize=20;fillColor=#404040;fontFamily=Tahoma;fontColor=#FAFAFA;" parent="1" vertex="1">
          <mxGeometry x="342.5048974278318" y="3400" width="40" height="40" as="geometry" />
        </mxCell>
        <mxCell id="sqq5_xpIMkr8mD9ZzL_n-29" value="Q" style="rounded=1;whiteSpace=wrap;html=1;fontSize=20;fillColor=#404040;fontFamily=Tahoma;fontColor=#FAFAFA;rotation=-5;" parent="1" vertex="1">
          <mxGeometry x="215.5048974278318" y="3350" width="40" height="40" as="geometry" />
        </mxCell>
        <mxCell id="sqq5_xpIMkr8mD9ZzL_n-30" value="S" style="rounded=1;whiteSpace=wrap;html=1;fontSize=20;fillColor=#404040;fontFamily=Tahoma;fontColor=#FAFAFA;" parent="1" vertex="1">
          <mxGeometry x="262.5048974278318" y="3380" width="40" height="40" as="geometry" />
        </mxCell>
        <mxCell id="sqq5_xpIMkr8mD9ZzL_n-31" value="C" style="rounded=1;whiteSpace=wrap;html=1;fontSize=20;fillColor=#404040;fontFamily=Tahoma;fontColor=#FAFAFA;" parent="1" vertex="1">
          <mxGeometry x="302.5048974278318" y="3430" width="40" height="40" as="geometry" />
        </mxCell>
        <mxCell id="sqq5_xpIMkr8mD9ZzL_n-32" value="X" style="rounded=1;whiteSpace=wrap;html=1;fontSize=20;fillColor=#404040;fontFamily=Tahoma;fontColor=#FAFAFA;" parent="1" vertex="1">
          <mxGeometry x="262.5048974278318" y="3420" width="40" height="40" as="geometry" />
        </mxCell>
        <mxCell id="sqq5_xpIMkr8mD9ZzL_n-33" value="Z" style="rounded=1;whiteSpace=wrap;html=1;fontSize=20;fillColor=#404040;fontFamily=Tahoma;fontColor=#FAFAFA;rotation=355;" parent="1" vertex="1">
          <mxGeometry x="221.5048974278318" y="3430" width="40" height="40" as="geometry" />
        </mxCell>
        <mxCell id="sqq5_xpIMkr8mD9ZzL_n-34" value="Ctrl" style="rounded=1;whiteSpace=wrap;html=1;fontSize=18;fillColor=#404040;fontFamily=Tahoma;fontColor=#FAFAFA;rotation=345;" parent="1" vertex="1">
          <mxGeometry x="182.5048974278318" y="3460" width="40" height="40" as="geometry" />
        </mxCell>
        <mxCell id="sqq5_xpIMkr8mD9ZzL_n-35" value="TAB" style="rounded=1;whiteSpace=wrap;html=1;fontSize=18;fillColor=#404040;fontFamily=Tahoma;fontColor=#FAFAFA;rotation=345;" parent="1" vertex="1">
          <mxGeometry x="162.5048974278318" y="3382" width="40" height="40" as="geometry" />
        </mxCell>
        <mxCell id="sqq5_xpIMkr8mD9ZzL_n-36" value="Shift" style="rounded=1;whiteSpace=wrap;html=1;fontSize=18;fillColor=#404040;fontFamily=Tahoma;fontColor=#FAFAFA;rotation=345;" parent="1" vertex="1">
          <mxGeometry x="172.5048974278318" y="3421" width="40" height="40" as="geometry" />
        </mxCell>
        <mxCell id="sqq5_xpIMkr8mD9ZzL_n-37" style="edgeStyle=orthogonalEdgeStyle;rounded=0;orthogonalLoop=1;jettySize=auto;html=1;fontSize=20;entryX=0.5;entryY=0;entryDx=0;entryDy=0;" parent="1" source="sqq5_xpIMkr8mD9ZzL_n-38" target="sqq5_xpIMkr8mD9ZzL_n-55" edge="1">
          <mxGeometry relative="1" as="geometry">
            <mxPoint x="420.0048974278318" y="3570" as="targetPoint" />
          </mxGeometry>
        </mxCell>
        <mxCell id="sqq5_xpIMkr8mD9ZzL_n-38" value="Space" style="rounded=1;whiteSpace=wrap;html=1;fontSize=16;fillColor=#404040;fontFamily=Tahoma;fontColor=#FAFAFA;rotation=15;" parent="1" vertex="1">
          <mxGeometry x="322.5048974278318" y="3490" width="40" height="40" as="geometry" />
        </mxCell>
        <mxCell id="sqq5_xpIMkr8mD9ZzL_n-39" value="L" style="rounded=1;whiteSpace=wrap;html=1;fontSize=20;fillColor=#404040;fontFamily=Tahoma;fontColor=#FAFAFA;rotation=5;flipV=0;flipH=0;direction=east;" parent="1" vertex="1">
          <mxGeometry x="587.5048974278318" y="3390" width="40" height="40" as="geometry" />
        </mxCell>
        <mxCell id="sqq5_xpIMkr8mD9ZzL_n-40" value="B" style="rounded=1;whiteSpace=wrap;html=1;fontSize=20;fillColor=#404040;fontFamily=Tahoma;fontColor=#FAFAFA;flipV=0;flipH=0;direction=east;" parent="1" vertex="1">
          <mxGeometry x="462.5048974278318" y="3440" width="40" height="40" as="geometry" />
        </mxCell>
        <mxCell id="sqq5_xpIMkr8mD9ZzL_n-41" value="U" style="rounded=1;whiteSpace=wrap;html=1;fontSize=20;fillColor=#404040;fontFamily=Tahoma;fontColor=#FAFAFA;flipV=0;flipH=0;direction=east;" parent="1" vertex="1">
          <mxGeometry x="542.5048974278318" y="3340" width="40" height="40" as="geometry" />
        </mxCell>
        <mxCell id="sqq5_xpIMkr8mD9ZzL_n-42" value="Y" style="rounded=1;whiteSpace=wrap;html=1;fontSize=20;fillColor=#404040;fontFamily=Tahoma;fontColor=#FAFAFA;flipV=0;flipH=0;direction=east;" parent="1" vertex="1">
          <mxGeometry x="502.5048974278318" y="3350" width="40" height="40" as="geometry" />
        </mxCell>
        <mxCell id="sqq5_xpIMkr8mD9ZzL_n-43" value="T" style="rounded=1;whiteSpace=wrap;html=1;fontSize=20;fillColor=#404040;fontFamily=Tahoma;fontColor=#FAFAFA;flipV=0;flipH=0;direction=east;" parent="1" vertex="1">
          <mxGeometry x="462.5048974278318" y="3360" width="40" height="40" as="geometry" />
        </mxCell>
        <mxCell id="sqq5_xpIMkr8mD9ZzL_n-44" value="J" style="rounded=1;whiteSpace=wrap;html=1;fontSize=20;fillColor=#404040;fontFamily=Tahoma;fontColor=#FAFAFA;flipV=0;flipH=0;direction=east;" parent="1" vertex="1">
          <mxGeometry x="502.5048974278318" y="3390" width="40" height="40" as="geometry" />
        </mxCell>
        <mxCell id="sqq5_xpIMkr8mD9ZzL_n-45" value="G" style="rounded=1;whiteSpace=wrap;html=1;fontSize=20;fillColor=#404040;fontFamily=Tahoma;fontColor=#FAFAFA;flipV=0;flipH=0;direction=east;" parent="1" vertex="1">
          <mxGeometry x="462.5048974278318" y="3400" width="40" height="40" as="geometry" />
        </mxCell>
        <mxCell id="sqq5_xpIMkr8mD9ZzL_n-46" value="I" style="rounded=1;whiteSpace=wrap;html=1;fontSize=20;fillColor=#404040;fontFamily=Tahoma;fontColor=#FAFAFA;rotation=5;flipV=0;flipH=0;direction=east;" parent="1" vertex="1">
          <mxGeometry x="591.5048974278318" y="3350" width="40" height="40" as="geometry" />
        </mxCell>
        <mxCell id="sqq5_xpIMkr8mD9ZzL_n-47" value="K" style="rounded=1;whiteSpace=wrap;html=1;fontSize=20;fillColor=#404040;fontFamily=Tahoma;fontColor=#FAFAFA;flipV=0;flipH=0;direction=east;" parent="1" vertex="1">
          <mxGeometry x="542.5048974278318" y="3380" width="40" height="40" as="geometry" />
        </mxCell>
        <mxCell id="sqq5_xpIMkr8mD9ZzL_n-48" value="M" style="rounded=1;whiteSpace=wrap;html=1;fontSize=20;fillColor=#404040;fontFamily=Tahoma;fontColor=#FAFAFA;flipV=0;flipH=0;direction=east;" parent="1" vertex="1">
          <mxGeometry x="502.5048974278318" y="3430" width="40" height="40" as="geometry" />
        </mxCell>
        <mxCell id="sqq5_xpIMkr8mD9ZzL_n-49" value="" style="rounded=1;whiteSpace=wrap;html=1;fontSize=20;fillColor=#404040;fontFamily=Tahoma;fontColor=#FAFAFA;rotation=15;flipV=0;flipH=0;direction=east;" parent="1" vertex="1">
          <mxGeometry x="622.5048974278318" y="3450" width="40" height="40" as="geometry" />
        </mxCell>
        <mxCell id="sqq5_xpIMkr8mD9ZzL_n-50" value="O" style="rounded=1;whiteSpace=wrap;html=1;fontSize=20;fillColor=#404040;fontFamily=Tahoma;fontColor=#FAFAFA;rotation=15;flipV=0;flipH=0;direction=east;" parent="1" vertex="1">
          <mxGeometry x="644.5048974278318" y="3372" width="40" height="40" as="geometry" />
        </mxCell>
        <mxCell id="sqq5_xpIMkr8mD9ZzL_n-51" value="P" style="rounded=1;whiteSpace=wrap;html=1;fontSize=20;fillColor=#404040;fontFamily=Tahoma;fontColor=#FAFAFA;rotation=15;flipV=0;flipH=0;direction=east;" parent="1" vertex="1">
          <mxGeometry x="633.5048974278318" y="3411" width="40" height="40" as="geometry" />
        </mxCell>
        <mxCell id="sqq5_xpIMkr8mD9ZzL_n-52" style="edgeStyle=orthogonalEdgeStyle;rounded=0;orthogonalLoop=1;jettySize=auto;html=1;fontSize=20;entryX=0.5;entryY=0;entryDx=0;entryDy=0;" parent="1" source="sqq5_xpIMkr8mD9ZzL_n-54" target="sqq5_xpIMkr8mD9ZzL_n-55" edge="1">
          <mxGeometry relative="1" as="geometry">
            <mxPoint x="420.0048974278318" y="3570" as="targetPoint" />
            <Array as="points">
              <mxPoint x="421.0048974278318" y="3510" />
            </Array>
          </mxGeometry>
        </mxCell>
        <mxCell id="sqq5_xpIMkr8mD9ZzL_n-53" value="Combo" style="edgeLabel;html=1;align=center;verticalAlign=middle;resizable=0;points=[];fontSize=16;" parent="sqq5_xpIMkr8mD9ZzL_n-52" vertex="1" connectable="0">
          <mxGeometry x="0.4041" y="1" relative="1" as="geometry">
            <mxPoint as="offset" />
          </mxGeometry>
        </mxCell>
        <mxCell id="sqq5_xpIMkr8mD9ZzL_n-54" value="&lt;span style=&quot;font-family: &amp;quot;segoe ui emoji&amp;quot;, &amp;quot;apple color emoji&amp;quot;, &amp;quot;noto color emoji&amp;quot;; font-size: 20px;&quot;&gt;↵&lt;/span&gt;" style="rounded=1;whiteSpace=wrap;html=1;fontSize=20;fillColor=#404040;fontFamily=Tahoma;fontColor=#FAFAFA;rotation=345;flipV=0;flipH=0;direction=east;" parent="1" vertex="1">
          <mxGeometry x="482.5048974278318" y="3490" width="40" height="40" as="geometry" />
        </mxCell>
        <mxCell id="sqq5_xpIMkr8mD9ZzL_n-55" value="Base" style="rounded=0;whiteSpace=wrap;html=1;fontSize=20;glass=0;sketch=0;fontFamily=Lucida Console;fillColor=#4D4D4D;gradientColor=none;fontColor=#FFFFFF;" parent="1" vertex="1">
          <mxGeometry x="371.0048974278318" y="3630" width="100" height="30" as="geometry" />
        </mxCell>
        <mxCell id="sqq5_xpIMkr8mD9ZzL_n-56" value="N" style="rounded=1;whiteSpace=wrap;html=1;fontSize=20;fillColor=#404040;fontFamily=Tahoma;fontColor=#FAFAFA;flipV=0;flipH=0;direction=east;verticalAlign=middle;" parent="1" vertex="1">
          <mxGeometry x="542.5048974278318" y="3421" width="40" height="40" as="geometry" />
        </mxCell>
        <mxCell id="sqq5_xpIMkr8mD9ZzL_n-57" value="" style="rounded=1;whiteSpace=wrap;html=1;fontSize=20;fillColor=#404040;fontFamily=Tahoma;fontColor=#FAFAFA;rotation=5;flipV=0;flipH=0;direction=east;verticalAlign=middle;" parent="1" vertex="1">
          <mxGeometry x="583.5048974278318" y="3431" width="40" height="40" as="geometry" />
        </mxCell>
        <mxCell id="sqq5_xpIMkr8mD9ZzL_n-58" value="L" style="rounded=1;whiteSpace=wrap;html=1;fontSize=20;fillColor=#404040;fontFamily=Tahoma;fontColor=#FAFAFA;rotation=5;flipV=0;flipH=0;direction=east;" parent="1" vertex="1">
          <mxGeometry x="622.5048974278318" y="3560" width="40" height="40" as="geometry" />
        </mxCell>
        <mxCell id="sqq5_xpIMkr8mD9ZzL_n-59" style="edgeStyle=orthogonalEdgeStyle;rounded=0;orthogonalLoop=1;jettySize=auto;html=1;" parent="1" source="sqq5_xpIMkr8mD9ZzL_n-60" edge="1">
          <mxGeometry relative="1" as="geometry">
            <mxPoint x="450.0048974278318" y="3580" as="targetPoint" />
          </mxGeometry>
        </mxCell>
        <mxCell id="sqq5_xpIMkr8mD9ZzL_n-60" value="J" style="rounded=1;whiteSpace=wrap;html=1;fontSize=20;fillColor=#404040;fontFamily=Tahoma;fontColor=#FAFAFA;flipV=0;flipH=0;direction=east;" parent="1" vertex="1">
          <mxGeometry x="533.5048974278318" y="3560" width="40" height="40" as="geometry" />
        </mxCell>
        <mxCell id="sqq5_xpIMkr8mD9ZzL_n-61" value="K" style="rounded=1;whiteSpace=wrap;html=1;fontSize=20;fillColor=#404040;fontFamily=Tahoma;fontColor=#FAFAFA;flipV=0;flipH=0;direction=east;" parent="1" vertex="1">
          <mxGeometry x="577.0048974278318" y="3560" width="40" height="40" as="geometry" />
        </mxCell>
        <mxCell id="sqq5_xpIMkr8mD9ZzL_n-62" value="&lt;span style=&quot;color: rgb(250, 250, 250); font-family: &amp;quot;segoe ui emoji&amp;quot;, &amp;quot;apple color emoji&amp;quot;, &amp;quot;noto color emoji&amp;quot;; font-size: 16px; font-style: normal; font-variant-ligatures: normal; font-variant-caps: normal; font-weight: 400; letter-spacing: normal; orphans: 2; text-align: center; text-indent: 0px; text-transform: none; widows: 2; word-spacing: 0px; -webkit-text-stroke-width: 0px; background-color: rgb(64, 64, 64); text-decoration-thickness: initial; text-decoration-style: initial; text-decoration-color: initial; float: none; display: inline !important;&quot;&gt;⌫&lt;/span&gt;" style="rounded=1;whiteSpace=wrap;html=1;fontSize=20;fillColor=#404040;fontFamily=Tahoma;fontColor=#FAFAFA;rotation=15;flipV=0;flipH=0;direction=east;" parent="1" vertex="1">
          <mxGeometry x="667.5048974278318" y="3570" width="40" height="40" as="geometry" />
        </mxCell>
        <mxCell id="sqq5_xpIMkr8mD9ZzL_n-83" value="ESC" style="rounded=1;whiteSpace=wrap;html=1;fontSize=15;fillColor=#404040;fontFamily=Tahoma;fontColor=#FAFAFA;rotation=15;" parent="1" vertex="1">
          <mxGeometry x="360" y="3510" width="40" height="40" as="geometry" />
        </mxCell>
        <mxCell id="sqq5_xpIMkr8mD9ZzL_n-84" value="Base" style="rounded=1;whiteSpace=wrap;html=1;fontSize=17;fillColor=#404040;fontFamily=Tahoma;fontColor=#FAFAFA;rotation=345;flipV=0;flipH=0;direction=east;" parent="1" vertex="1">
          <mxGeometry x="446.25" y="3510" width="40" height="40" as="geometry" />
        </mxCell>
        <mxCell id="kN11E63hpgjukxllPcyO-2" value="Media &amp;amp; Numpad" style="rounded=0;whiteSpace=wrap;html=1;fontSize=20;glass=0;sketch=0;fontFamily=Lucida Console;fillColor=#e51400;strokeColor=#FFFFFF;fontColor=#ffffff;" parent="1" vertex="1">
          <mxGeometry x="260" y="1840" width="297" height="30" as="geometry" />
        </mxCell>
        <mxCell id="kN11E63hpgjukxllPcyO-3" value="Redo" style="rounded=1;whiteSpace=wrap;html=1;fontSize=17;fillColor=#404040;fontFamily=Tahoma;fontColor=#FAFAFA;" parent="1" vertex="1">
          <mxGeometry x="330" y="2010" width="40" height="40" as="geometry" />
        </mxCell>
        <mxCell id="kN11E63hpgjukxllPcyO-4" value="Vol-" style="rounded=1;whiteSpace=wrap;html=1;fontSize=18;fillColor=#404040;fontFamily=Tahoma;fontColor=#FAFAFA;" parent="1" vertex="1">
          <mxGeometry x="250" y="1910" width="40" height="40" as="geometry" />
        </mxCell>
        <mxCell id="kN11E63hpgjukxllPcyO-5" value="Vol+" style="rounded=1;whiteSpace=wrap;html=1;fontSize=18;fillColor=#404040;fontFamily=Tahoma;fontColor=#FAFAFA;" parent="1" vertex="1">
          <mxGeometry x="290" y="1920" width="40" height="40" as="geometry" />
        </mxCell>
        <mxCell id="kN11E63hpgjukxllPcyO-6" value="Mute" style="rounded=1;whiteSpace=wrap;html=1;fontSize=14;fillColor=#404040;fontFamily=Tahoma;fontColor=#FAFAFA;" parent="1" vertex="1">
          <mxGeometry x="330" y="1930" width="40" height="40" as="geometry" />
        </mxCell>
        <mxCell id="kN11E63hpgjukxllPcyO-8" value="&amp;nbsp;⏩︎" style="rounded=1;whiteSpace=wrap;html=1;fontSize=22;fillColor=#404040;fontFamily=Tahoma;fontColor=#FAFAFA;" parent="1" vertex="1">
          <mxGeometry x="330" y="1970" width="40" height="40" as="geometry" />
        </mxCell>
        <mxCell id="kN11E63hpgjukxllPcyO-9" value="Bright&lt;br style=&quot;font-size: 13px;&quot;&gt;+" style="rounded=1;whiteSpace=wrap;html=1;fontSize=13;fillColor=#404040;fontFamily=Tahoma;fontColor=#FAFAFA;rotation=-5;" parent="1" vertex="1">
          <mxGeometry x="203" y="1920" width="40" height="40" as="geometry" />
        </mxCell>
        <mxCell id="kN11E63hpgjukxllPcyO-11" value="Ctrl+V" style="rounded=1;whiteSpace=wrap;html=1;fontSize=12;fillColor=#404040;fontFamily=Tahoma;fontColor=#FAFAFA;" parent="1" vertex="1">
          <mxGeometry x="290" y="2000" width="40" height="40" as="geometry" />
        </mxCell>
        <mxCell id="kN11E63hpgjukxllPcyO-12" value="Ctrl+C" style="rounded=1;whiteSpace=wrap;html=1;fontSize=12;fillColor=#404040;fontFamily=Tahoma;fontColor=#FAFAFA;" parent="1" vertex="1">
          <mxGeometry x="250" y="1990" width="40" height="40" as="geometry" />
        </mxCell>
        <mxCell id="kN11E63hpgjukxllPcyO-13" value="Ctrl+X" style="rounded=1;whiteSpace=wrap;html=1;fontSize=12;fillColor=#404040;fontFamily=Tahoma;fontColor=#FAFAFA;rotation=355;" parent="1" vertex="1">
          <mxGeometry x="209" y="2000" width="40" height="40" as="geometry" />
        </mxCell>
        <mxCell id="kN11E63hpgjukxllPcyO-14" value="Ctrl+Z" style="rounded=1;whiteSpace=wrap;html=1;fontSize=12;fillColor=#404040;fontFamily=Tahoma;fontColor=#FAFAFA;rotation=345;" parent="1" vertex="1">
          <mxGeometry x="170" y="2030" width="40" height="40" as="geometry" />
        </mxCell>
        <mxCell id="kN11E63hpgjukxllPcyO-15" value="Bright&lt;br style=&quot;font-size: 13px;&quot;&gt;-" style="rounded=1;whiteSpace=wrap;html=1;fontSize=13;fillColor=#404040;fontFamily=Tahoma;fontColor=#FAFAFA;rotation=345;" parent="1" vertex="1">
          <mxGeometry x="150" y="1952" width="40" height="40" as="geometry" />
        </mxCell>
        <mxCell id="kN11E63hpgjukxllPcyO-17" value="3" style="rounded=1;whiteSpace=wrap;html=1;fontSize=20;fillColor=#404040;fontFamily=Tahoma;fontColor=#FAFAFA;rotation=5;flipV=0;flipH=0;direction=east;" parent="1" vertex="1">
          <mxGeometry x="575" y="1960" width="40" height="40" as="geometry" />
        </mxCell>
        <mxCell id="kN11E63hpgjukxllPcyO-18" value="." style="rounded=1;whiteSpace=wrap;html=1;fontSize=20;fillColor=#404040;fontFamily=Tahoma;fontColor=#FAFAFA;flipV=0;flipH=0;direction=east;" parent="1" vertex="1">
          <mxGeometry x="450" y="2010" width="40" height="40" as="geometry" />
        </mxCell>
        <mxCell id="kN11E63hpgjukxllPcyO-19" value="8" style="rounded=1;whiteSpace=wrap;html=1;fontSize=20;fillColor=#404040;fontFamily=Tahoma;fontColor=#FAFAFA;flipV=0;flipH=0;direction=east;" parent="1" vertex="1">
          <mxGeometry x="530" y="1910" width="40" height="40" as="geometry" />
        </mxCell>
        <mxCell id="kN11E63hpgjukxllPcyO-20" value="7" style="rounded=1;whiteSpace=wrap;html=1;fontSize=20;fillColor=#404040;fontFamily=Tahoma;fontColor=#FAFAFA;flipV=0;flipH=0;direction=east;" parent="1" vertex="1">
          <mxGeometry x="490" y="1920" width="40" height="40" as="geometry" />
        </mxCell>
        <mxCell id="kN11E63hpgjukxllPcyO-21" value="/" style="rounded=1;whiteSpace=wrap;html=1;fontSize=20;fillColor=#404040;fontFamily=Tahoma;fontColor=#FAFAFA;flipV=0;flipH=0;direction=east;" parent="1" vertex="1">
          <mxGeometry x="450" y="1930" width="40" height="40" as="geometry" />
        </mxCell>
        <mxCell id="kN11E63hpgjukxllPcyO-22" value="1" style="rounded=1;whiteSpace=wrap;html=1;fontSize=20;fillColor=#404040;fontFamily=Tahoma;fontColor=#FAFAFA;flipV=0;flipH=0;direction=east;" parent="1" vertex="1">
          <mxGeometry x="490" y="1960" width="40" height="40" as="geometry" />
        </mxCell>
        <mxCell id="kN11E63hpgjukxllPcyO-23" value="*" style="rounded=1;whiteSpace=wrap;html=1;fontSize=20;fillColor=#404040;fontFamily=Tahoma;fontColor=#FAFAFA;flipV=0;flipH=0;direction=east;" parent="1" vertex="1">
          <mxGeometry x="450" y="1970" width="40" height="40" as="geometry" />
        </mxCell>
        <mxCell id="kN11E63hpgjukxllPcyO-24" value="9" style="rounded=1;whiteSpace=wrap;html=1;fontSize=20;fillColor=#404040;fontFamily=Tahoma;fontColor=#FAFAFA;rotation=5;flipV=0;flipH=0;direction=east;" parent="1" vertex="1">
          <mxGeometry x="579" y="1920" width="40" height="40" as="geometry" />
        </mxCell>
        <mxCell id="kN11E63hpgjukxllPcyO-25" value="2" style="rounded=1;whiteSpace=wrap;html=1;fontSize=20;fillColor=#404040;fontFamily=Tahoma;fontColor=#FAFAFA;flipV=0;flipH=0;direction=east;" parent="1" vertex="1">
          <mxGeometry x="530" y="1950" width="40" height="40" as="geometry" />
        </mxCell>
        <mxCell id="kN11E63hpgjukxllPcyO-26" value="4" style="rounded=1;whiteSpace=wrap;html=1;fontSize=20;fillColor=#404040;fontFamily=Tahoma;fontColor=#FAFAFA;flipV=0;flipH=0;direction=east;" parent="1" vertex="1">
          <mxGeometry x="490" y="2000" width="40" height="40" as="geometry" />
        </mxCell>
        <mxCell id="kN11E63hpgjukxllPcyO-27" value="5" style="rounded=1;whiteSpace=wrap;html=1;fontSize=20;fillColor=#404040;fontFamily=Tahoma;fontColor=#FAFAFA;flipV=0;flipH=0;direction=east;" parent="1" vertex="1">
          <mxGeometry x="530" y="1990" width="40" height="40" as="geometry" />
        </mxCell>
        <mxCell id="kN11E63hpgjukxllPcyO-28" value="6" style="rounded=1;whiteSpace=wrap;html=1;fontSize=20;fillColor=#404040;fontFamily=Tahoma;fontColor=#FAFAFA;rotation=5;flipV=0;flipH=0;direction=east;" parent="1" vertex="1">
          <mxGeometry x="571" y="2000" width="40" height="40" as="geometry" />
        </mxCell>
        <mxCell id="kN11E63hpgjukxllPcyO-29" value="," style="rounded=1;whiteSpace=wrap;html=1;fontSize=20;fillColor=#404040;fontFamily=Tahoma;fontColor=#FAFAFA;rotation=15;flipV=0;flipH=0;direction=east;" parent="1" vertex="1">
          <mxGeometry x="610" y="2020" width="40" height="40" as="geometry" />
        </mxCell>
        <mxCell id="kN11E63hpgjukxllPcyO-30" value="⌫" style="rounded=1;whiteSpace=wrap;html=1;fontSize=17;fillColor=#404040;fontFamily=Tahoma;fontColor=#FAFAFA;rotation=15;flipV=0;flipH=0;direction=east;" parent="1" vertex="1">
          <mxGeometry x="632" y="1942" width="40" height="40" as="geometry" />
        </mxCell>
        <mxCell id="kN11E63hpgjukxllPcyO-31" value="0" style="rounded=1;whiteSpace=wrap;html=1;fontSize=20;fillColor=#404040;fontFamily=Tahoma;fontColor=#FAFAFA;rotation=15;flipV=0;flipH=0;direction=east;" parent="1" vertex="1">
          <mxGeometry x="621" y="1981" width="40" height="40" as="geometry" />
        </mxCell>
        <mxCell id="kN11E63hpgjukxllPcyO-33" value="" style="rounded=1;whiteSpace=wrap;html=1;fontSize=20;fillColor=#404040;fontFamily=Tahoma;fontColor=#FAFAFA;rotation=345;flipV=0;flipH=0;direction=east;" parent="1" vertex="1">
          <mxGeometry x="470" y="2060" width="40" height="40" as="geometry" />
        </mxCell>
        <mxCell id="kN11E63hpgjukxllPcyO-34" value="" style="rounded=1;whiteSpace=wrap;html=1;fontSize=14;fillColor=#404040;fontFamily=Tahoma;fontColor=#FAFAFA;rotation=15;" parent="1" vertex="1">
          <mxGeometry x="308.75" y="2060" width="40" height="40" as="geometry" />
        </mxCell>
        <mxCell id="kN11E63hpgjukxllPcyO-35" value="" style="rounded=1;whiteSpace=wrap;html=1;fontSize=17;fillColor=#e51400;fontFamily=Tahoma;fontColor=#ffffff;rotation=15;strokeColor=#FFFFFF;" parent="1" vertex="1">
          <mxGeometry x="346.25" y="2080" width="40" height="40" as="geometry" />
        </mxCell>
        <mxCell id="kN11E63hpgjukxllPcyO-36" value="" style="rounded=1;whiteSpace=wrap;html=1;fontSize=20;fillColor=#404040;fontFamily=Tahoma;fontColor=#FAFAFA;rotation=345;flipV=0;flipH=0;direction=east;" parent="1" vertex="1">
          <mxGeometry x="432.5" y="2080" width="40" height="40" as="geometry" />
        </mxCell>
        <mxCell id="aAApl1Ig2WWUTFX6m8gI-8" value="&lt;span style=&quot;border-color: var(--border-color); color: rgba(0, 0, 0, 0); font-family: monospace; font-size: 0px; text-align: start; background-color: rgb(248, 249, 250);&quot;&gt;%3CmxGraphModel%3E%3Croot%3E%3CmxCell%20id%3D%220%22%2F%3E%3CmxCell%20id%3D%221%22%20parent%3D%220%22%2F%3E%3CmxCell%20id%3D%222%22%20value%3D%22%22%20style%3D%22rounded%3D1%3BwhiteSpace%3Dwrap%3Bhtml%3D1%3BfontSize%3D20%3BfillColor%3D%23404040%3BfontFamily%3DTahoma%3BfontColor%3D%23FAFAFA%3Brotation%3D355%3B%22%20vertex%3D%221%22%20parent%3D%221%22%3E%3CmxGeometry%20x%3D%22197.75%22%20y%3D%221329%22%20width%3D%2240%22%20height%3D%2240%22%20as%3D%22geometry%22%2F%3E%3C%2FmxCell%3E%3C%2Froot%3E%3C%2FmxGraphModel%3E&lt;/span&gt;&lt;span style=&quot;font-size: 20px;&quot;&gt;⏮&lt;/span&gt;" style="rounded=1;whiteSpace=wrap;html=1;fontSize=14;fillColor=#404040;fontFamily=Tahoma;fontColor=#FAFAFA;rotation=355;" parent="1" vertex="1">
          <mxGeometry x="206" y="1960" width="40" height="40" as="geometry" />
        </mxCell>
        <mxCell id="aAApl1Ig2WWUTFX6m8gI-9" value="&lt;span style=&quot;font-size: 20px;&quot;&gt;⏭&lt;/span&gt;" style="rounded=1;whiteSpace=wrap;html=1;fontSize=13;fillColor=#404040;fontFamily=Tahoma;fontColor=#FAFAFA;" parent="1" vertex="1">
          <mxGeometry x="290" y="1960" width="40" height="40" as="geometry" />
        </mxCell>
        <mxCell id="aAApl1Ig2WWUTFX6m8gI-10" value="&lt;span style=&quot;font-size: 20px;&quot;&gt;⏯&lt;/span&gt;" style="rounded=1;whiteSpace=wrap;html=1;fontSize=14;fillColor=#404040;fontFamily=Tahoma;fontColor=#FAFAFA;" parent="1" vertex="1">
          <mxGeometry x="250" y="1950" width="40" height="40" as="geometry" />
        </mxCell>
        <mxCell id="aAApl1Ig2WWUTFX6m8gI-11" value="⏪︎" style="rounded=1;whiteSpace=wrap;html=1;fontSize=22;fillColor=#404040;fontFamily=Tahoma;fontColor=#FAFAFA;rotation=345;" parent="1" vertex="1">
          <mxGeometry x="160" y="1991" width="40" height="40" as="geometry" />
        </mxCell>
        <mxCell id="Bwkxw14er_QYUHpWonbk-1" value="Extra" style="rounded=0;whiteSpace=wrap;html=1;fontSize=20;glass=0;sketch=0;fontFamily=Lucida Console;fillColor=#6a00ff;strokeColor=#FFFFFF;fontColor=#ffffff;" parent="1" vertex="1">
          <mxGeometry x="270" y="2240" width="297" height="30" as="geometry" />
        </mxCell>
        <mxCell id="Bwkxw14er_QYUHpWonbk-2" value="" style="rounded=1;whiteSpace=wrap;html=1;fontSize=17;fillColor=#404040;fontFamily=Tahoma;fontColor=#FAFAFA;" parent="1" vertex="1">
          <mxGeometry x="340" y="2410" width="40" height="40" as="geometry" />
        </mxCell>
        <mxCell id="Bwkxw14er_QYUHpWonbk-3" value="" style="rounded=1;whiteSpace=wrap;html=1;fontSize=18;fillColor=#404040;fontFamily=Tahoma;fontColor=#FAFAFA;" parent="1" vertex="1">
          <mxGeometry x="260" y="2310" width="40" height="40" as="geometry" />
        </mxCell>
        <mxCell id="Bwkxw14er_QYUHpWonbk-4" value="" style="rounded=1;whiteSpace=wrap;html=1;fontSize=18;fillColor=#404040;fontFamily=Tahoma;fontColor=#FAFAFA;" parent="1" vertex="1">
          <mxGeometry x="300" y="2320" width="40" height="40" as="geometry" />
        </mxCell>
        <mxCell id="Bwkxw14er_QYUHpWonbk-5" value="Magic&lt;br&gt;Sync" style="rounded=1;whiteSpace=wrap;html=1;fontSize=14;fillColor=#404040;fontFamily=Tahoma;fontColor=#FAFAFA;" parent="1" vertex="1">
          <mxGeometry x="340" y="2330" width="40" height="40" as="geometry" />
        </mxCell>
        <mxCell id="Bwkxw14er_QYUHpWonbk-6" value="Linux&lt;br&gt;Reboot" style="rounded=1;whiteSpace=wrap;html=1;fontSize=12;fillColor=#404040;fontFamily=Tahoma;fontColor=#FAFAFA;" parent="1" vertex="1">
          <mxGeometry x="340" y="2370" width="40" height="40" as="geometry" />
        </mxCell>
        <mxCell id="Bwkxw14er_QYUHpWonbk-7" value="" style="rounded=1;whiteSpace=wrap;html=1;fontSize=20;fillColor=#404040;fontFamily=Tahoma;fontColor=#FAFAFA;rotation=-5;" parent="1" vertex="1">
          <mxGeometry x="213" y="2320" width="40" height="40" as="geometry" />
        </mxCell>
        <mxCell id="Bwkxw14er_QYUHpWonbk-8" value="" style="rounded=1;whiteSpace=wrap;html=1;fontSize=12;fillColor=#404040;fontFamily=Tahoma;fontColor=#FAFAFA;" parent="1" vertex="1">
          <mxGeometry x="300" y="2400" width="40" height="40" as="geometry" />
        </mxCell>
        <mxCell id="Bwkxw14er_QYUHpWonbk-9" value="" style="rounded=1;whiteSpace=wrap;html=1;fontSize=12;fillColor=#404040;fontFamily=Tahoma;fontColor=#FAFAFA;" parent="1" vertex="1">
          <mxGeometry x="260" y="2390" width="40" height="40" as="geometry" />
        </mxCell>
        <mxCell id="Bwkxw14er_QYUHpWonbk-10" value="" style="rounded=1;whiteSpace=wrap;html=1;fontSize=12;fillColor=#404040;fontFamily=Tahoma;fontColor=#FAFAFA;rotation=355;" parent="1" vertex="1">
          <mxGeometry x="219" y="2400" width="40" height="40" as="geometry" />
        </mxCell>
        <mxCell id="Bwkxw14er_QYUHpWonbk-11" value="" style="rounded=1;whiteSpace=wrap;html=1;fontSize=12;fillColor=#404040;fontFamily=Tahoma;fontColor=#FAFAFA;rotation=345;" parent="1" vertex="1">
          <mxGeometry x="180" y="2430" width="40" height="40" as="geometry" />
        </mxCell>
        <mxCell id="Bwkxw14er_QYUHpWonbk-12" value="" style="rounded=1;whiteSpace=wrap;html=1;fontSize=20;fillColor=#404040;fontFamily=Tahoma;fontColor=#FAFAFA;rotation=345;" parent="1" vertex="1">
          <mxGeometry x="160" y="2352" width="40" height="40" as="geometry" />
        </mxCell>
        <mxCell id="Bwkxw14er_QYUHpWonbk-13" value="" style="rounded=1;whiteSpace=wrap;html=1;fontSize=20;fillColor=#404040;fontFamily=Tahoma;fontColor=#FAFAFA;rotation=5;flipV=0;flipH=0;direction=east;" parent="1" vertex="1">
          <mxGeometry x="585" y="2360" width="40" height="40" as="geometry" />
        </mxCell>
        <mxCell id="Bwkxw14er_QYUHpWonbk-14" value="" style="rounded=1;whiteSpace=wrap;html=1;fontSize=12;fillColor=#404040;fontFamily=Tahoma;fontColor=#FAFAFA;flipV=0;flipH=0;direction=east;" parent="1" vertex="1">
          <mxGeometry x="460" y="2410" width="40" height="40" as="geometry" />
        </mxCell>
        <mxCell id="Bwkxw14er_QYUHpWonbk-15" value="" style="rounded=1;whiteSpace=wrap;html=1;fontSize=20;fillColor=#404040;fontFamily=Tahoma;fontColor=#FAFAFA;flipV=0;flipH=0;direction=east;" parent="1" vertex="1">
          <mxGeometry x="540" y="2310" width="40" height="40" as="geometry" />
        </mxCell>
        <mxCell id="Bwkxw14er_QYUHpWonbk-16" value="" style="rounded=1;whiteSpace=wrap;html=1;fontSize=20;fillColor=#404040;fontFamily=Tahoma;fontColor=#FAFAFA;flipV=0;flipH=0;direction=east;" parent="1" vertex="1">
          <mxGeometry x="500" y="2320" width="40" height="40" as="geometry" />
        </mxCell>
        <mxCell id="Bwkxw14er_QYUHpWonbk-17" value="&amp;nbsp;" style="rounded=1;whiteSpace=wrap;html=1;fontSize=13;fillColor=#404040;fontFamily=Tahoma;fontColor=#FAFAFA;flipV=0;flipH=0;direction=east;" parent="1" vertex="1">
          <mxGeometry x="460" y="2330" width="40" height="40" as="geometry" />
        </mxCell>
        <mxCell id="Bwkxw14er_QYUHpWonbk-18" value="" style="rounded=1;whiteSpace=wrap;html=1;fontSize=20;fillColor=#404040;fontFamily=Tahoma;fontColor=#FAFAFA;flipV=0;flipH=0;direction=east;" parent="1" vertex="1">
          <mxGeometry x="500" y="2360" width="40" height="40" as="geometry" />
        </mxCell>
        <mxCell id="Bwkxw14er_QYUHpWonbk-19" value="" style="rounded=1;whiteSpace=wrap;html=1;fontSize=12;fillColor=#404040;fontFamily=Tahoma;fontColor=#FAFAFA;flipV=0;flipH=0;direction=east;" parent="1" vertex="1">
          <mxGeometry x="460" y="2370" width="40" height="40" as="geometry" />
        </mxCell>
        <mxCell id="Bwkxw14er_QYUHpWonbk-20" value="" style="rounded=1;whiteSpace=wrap;html=1;fontSize=20;fillColor=#404040;fontFamily=Tahoma;fontColor=#FAFAFA;rotation=5;flipV=0;flipH=0;direction=east;" parent="1" vertex="1">
          <mxGeometry x="589" y="2320" width="40" height="40" as="geometry" />
        </mxCell>
        <mxCell id="Bwkxw14er_QYUHpWonbk-21" value="" style="rounded=1;whiteSpace=wrap;html=1;fontSize=20;fillColor=#404040;fontFamily=Tahoma;fontColor=#FAFAFA;flipV=0;flipH=0;direction=east;" parent="1" vertex="1">
          <mxGeometry x="540" y="2350" width="40" height="40" as="geometry" />
        </mxCell>
        <mxCell id="Bwkxw14er_QYUHpWonbk-22" value="" style="rounded=1;whiteSpace=wrap;html=1;fontSize=20;fillColor=#404040;fontFamily=Tahoma;fontColor=#FAFAFA;flipV=0;flipH=0;direction=east;" parent="1" vertex="1">
          <mxGeometry x="500" y="2400" width="40" height="40" as="geometry" />
        </mxCell>
        <mxCell id="Bwkxw14er_QYUHpWonbk-23" value="" style="rounded=1;whiteSpace=wrap;html=1;fontSize=20;fillColor=#404040;fontFamily=Tahoma;fontColor=#FAFAFA;flipV=0;flipH=0;direction=east;" parent="1" vertex="1">
          <mxGeometry x="540" y="2390" width="40" height="40" as="geometry" />
        </mxCell>
        <mxCell id="Bwkxw14er_QYUHpWonbk-24" value="" style="rounded=1;whiteSpace=wrap;html=1;fontSize=20;fillColor=#404040;fontFamily=Tahoma;fontColor=#FAFAFA;rotation=5;flipV=0;flipH=0;direction=east;" parent="1" vertex="1">
          <mxGeometry x="581" y="2400" width="40" height="40" as="geometry" />
        </mxCell>
        <mxCell id="Bwkxw14er_QYUHpWonbk-25" value="" style="rounded=1;whiteSpace=wrap;html=1;fontSize=11;fillColor=#404040;fontFamily=Tahoma;fontColor=#FAFAFA;rotation=15;flipV=0;flipH=0;direction=east;" parent="1" vertex="1">
          <mxGeometry x="620" y="2420" width="40" height="40" as="geometry" />
        </mxCell>
        <mxCell id="Bwkxw14er_QYUHpWonbk-26" value="" style="rounded=1;whiteSpace=wrap;html=1;fontSize=17;fillColor=#404040;fontFamily=Tahoma;fontColor=#FAFAFA;rotation=15;flipV=0;flipH=0;direction=east;" parent="1" vertex="1">
          <mxGeometry x="642" y="2342" width="40" height="40" as="geometry" />
        </mxCell>
        <mxCell id="Bwkxw14er_QYUHpWonbk-27" value="" style="rounded=1;whiteSpace=wrap;html=1;fontSize=20;fillColor=#404040;fontFamily=Tahoma;fontColor=#FAFAFA;rotation=15;flipV=0;flipH=0;direction=east;" parent="1" vertex="1">
          <mxGeometry x="631" y="2381" width="40" height="40" as="geometry" />
        </mxCell>
        <mxCell id="Bwkxw14er_QYUHpWonbk-28" value="" style="rounded=1;whiteSpace=wrap;html=1;fontSize=20;fillColor=#404040;fontFamily=Tahoma;fontColor=#FAFAFA;rotation=345;flipV=0;flipH=0;direction=east;" parent="1" vertex="1">
          <mxGeometry x="480" y="2460" width="40" height="40" as="geometry" />
        </mxCell>
        <mxCell id="Bwkxw14er_QYUHpWonbk-29" value="" style="rounded=1;whiteSpace=wrap;html=1;fontSize=14;fillColor=#404040;fontFamily=Tahoma;fontColor=#FAFAFA;rotation=15;" parent="1" vertex="1">
          <mxGeometry x="318.75" y="2460" width="40" height="40" as="geometry" />
        </mxCell>
        <mxCell id="Bwkxw14er_QYUHpWonbk-30" value="" style="rounded=1;whiteSpace=wrap;html=1;fontSize=17;fillColor=#6a00ff;fontFamily=Tahoma;fontColor=#ffffff;rotation=15;strokeColor=#FFFFFF;" parent="1" vertex="1">
          <mxGeometry x="356.25" y="2480" width="40" height="40" as="geometry" />
        </mxCell>
        <mxCell id="Bwkxw14er_QYUHpWonbk-31" value="" style="rounded=1;whiteSpace=wrap;html=1;fontSize=20;fillColor=#6a00ff;fontFamily=Tahoma;fontColor=#ffffff;rotation=345;flipV=0;flipH=0;direction=east;strokeColor=#FFFFFF;" parent="1" vertex="1">
          <mxGeometry x="442.5" y="2480" width="40" height="40" as="geometry" />
        </mxCell>
        <mxCell id="Bwkxw14er_QYUHpWonbk-32" value="Gaming" style="rounded=1;whiteSpace=wrap;html=1;fontSize=12;fillColor=#404040;fontFamily=Tahoma;fontColor=#FAFAFA;rotation=355;" parent="1" vertex="1">
          <mxGeometry x="216" y="2360" width="40" height="40" as="geometry" />
        </mxCell>
        <mxCell id="Bwkxw14er_QYUHpWonbk-33" value="Default US" style="rounded=1;whiteSpace=wrap;html=1;fontSize=12;fillColor=#404040;fontFamily=Tahoma;fontColor=#FAFAFA;" parent="1" vertex="1">
          <mxGeometry x="300" y="2360" width="40" height="40" as="geometry" />
        </mxCell>
        <mxCell id="Bwkxw14er_QYUHpWonbk-34" value="Qwerty" style="rounded=1;whiteSpace=wrap;html=1;fontSize=13;fillColor=#404040;fontFamily=Tahoma;fontColor=#FAFAFA;" parent="1" vertex="1">
          <mxGeometry x="260" y="2350" width="40" height="40" as="geometry" />
        </mxCell>
        <mxCell id="Bwkxw14er_QYUHpWonbk-35" value="" style="rounded=1;whiteSpace=wrap;html=1;fontSize=14;fillColor=#404040;fontFamily=Tahoma;fontColor=#FAFAFA;rotation=345;" parent="1" vertex="1">
          <mxGeometry x="170" y="2391" width="40" height="40" as="geometry" />
        </mxCell>
        <mxCell id="Bwkxw14er_QYUHpWonbk-36" value="These are numbers and &lt;br&gt;symbols of the NUMPAD" style="text;html=1;align=center;verticalAlign=middle;resizable=0;points=[];autosize=1;strokeColor=none;fillColor=none;" parent="1" vertex="1">
          <mxGeometry x="610" y="1840" width="160" height="40" as="geometry" />
        </mxCell>
        <mxCell id="Bwkxw14er_QYUHpWonbk-40" value="More layers accessed as permanent layers from EXTRA" style="whiteSpace=wrap;html=1;" parent="1" vertex="1">
          <mxGeometry x="210" y="2640" width="410" height="60" as="geometry" />
        </mxCell>
        <mxCell id="20JzUD5Fwz85h2eqfHul-1" value="Mod&lt;br style=&quot;font-size: 14px;&quot;&gt;Tap" style="rounded=1;whiteSpace=wrap;html=1;fontSize=14;fillColor=#404040;fontFamily=Tahoma;fontColor=#FAFAFA;flipV=0;flipH=0;direction=east;strokeColor=#000000;" vertex="1" parent="1">
          <mxGeometry x="680" y="-40" width="40" height="40" as="geometry" />
        </mxCell>
        <mxCell id="20JzUD5Fwz85h2eqfHul-2" value="Colemak-DH US Layout" style="rounded=0;whiteSpace=wrap;html=1;fontSize=20;glass=0;sketch=0;fontFamily=Lucida Console;" vertex="1" parent="1">
          <mxGeometry x="280" y="3730" width="297" height="30" as="geometry" />
        </mxCell>
        <mxCell id="20JzUD5Fwz85h2eqfHul-4" value="Extra" style="rounded=1;whiteSpace=wrap;html=1;fontSize=16;fillColor=#6a00ff;fontFamily=Tahoma;fontColor=#ffffff;flipV=0;flipH=0;direction=east;strokeColor=#FFFFFF;" vertex="1" parent="1">
          <mxGeometry x="240" y="300" width="40" height="40" as="geometry" />
        </mxCell>
      </root>
    </mxGraphModel>
  </diagram>
</mxfile>
